<?xml version="1.0" encoding="utf-8"?>
<!-- Generator: Adobe Illustrator 28.0.0, SVG Export Plug-In . SVG Version: 6.00 Build 0)  -->
<svg version="1.1" id="Layer_2" xmlns="http://www.w3.org/2000/svg" xmlns:xlink="http://www.w3.org/1999/xlink" x="0px" y="0px"
	 viewBox="0 0 2000 2000" style="enable-background:new 0 0 2000 2000;" xml:space="preserve">
<style type="text/css">
	.st0{clip-path:url(#SVGID_00000134222157489989395430000005060426313781391023_);}
	.st1{fill:#F7FDFF;}
</style>
<g>
	
		<image style="overflow:visible;opacity:0.5;" width="1929" height="1247" xlink:href="4311DC72B1F38576.png"  transform="matrix(1 0 0 1 42.0085 338.7169)">
	</image>
	<g>
		<g>
			<g>
				<defs>
					<rect id="SVGID_1_" x="84.2" y="381.1" width="842" height="1161.7"/>
				</defs>
				<clipPath id="SVGID_00000018918330356460284240000007341266309462202807_">
					<use xlink:href="#SVGID_1_"  style="overflow:visible;"/>
				</clipPath>
			</g>
		</g>
		<g>
			<g>
				<defs>
					<rect id="SVGID_00000160180139424598050880000003997961411477938586_" x="84.2" y="381.1" width="842" height="1161.7"/>
				</defs>
				<clipPath id="SVGID_00000050630355872571783530000002131504018053345208_">
					<use xlink:href="#SVGID_00000160180139424598050880000003997961411477938586_"  style="overflow:visible;"/>
				</clipPath>
				<g style="clip-path:url(#SVGID_00000050630355872571783530000002131504018053345208_);">
					<g>
						<path class="st1" d="M921.7,591.2c-3.2-1.9-6.7-2.2-10.1-0.9c-7.4,2.7-14.4,6.1-20,16.3c10.9-1.3,19.4-3.5,28.1-3.1
							c3.3,0.1,6.1-1,6.6-4.9C926.6,594.9,924.5,592.9,921.7,591.2L921.7,591.2z M922.9,598.4c-0.3,2.7-2.5,3.4-4.9,3.4
							c-6.5-0.3-12.8,1.2-20.9,2.1c4.2-7,9.4-9.3,14.9-11.1c2.6-0.9,5.1-0.6,7.5,0.7C921.6,594.5,923.2,595.9,922.9,598.4
							L922.9,598.4z"/>
					</g>
					<g>
						<path class="st1" d="M864.9,1185.2c-18.2-51.1-32.3-103.7-55.4-153.1c-10.8-23-10.3-23.2-2.5-48.1c12-38.2,21-77.3,30-116.3
							c2.7-11.8,2.1-24,1-36c-0.8-8.4-6.1-15.2-11.7-13.6c-9.2,2.6-8.3-3.7-8.9-8.4c-1.5-11.5-3.4-22.8-10.9-32.9
							c12.8-9.6,24.8-19.1,33.9-32c29.4-41.8,41.9-87.4,34.8-138.7c-6.2-45.4-27.8-81.3-63.6-108.5c-21.1-16.1-43.3-30.9-70.2-37.3
							c0.6-2.7,0.9-4.9,1.4-7c4.7-19.9,0-38-11.5-54.4c-5.5-7.8-13-13.1-22.2-16.2c-8.7-2.9-17.2-2.6-23.8,3.4
							c-6.1,5.6-10.6,4.8-17.4,1.5c-12.8-6.3-26.1-9.3-38.2,2.2c-1.8,1.7-3.8,1.9-6.1,0.7c-2.3-1.3-4.7-2.8-7.2-3.4
							c-10.6-2.3-21.2-3.2-30.2,4.8c-8.4,7.5-4.7,16.1-2,24.7c2,6.5,2.4,13.3,0,19.7c-4.9,13.2-15.9,22.4-22.9,34.3
							c-1.1,1.9-4.6,2.5-7.1,3.3c-28.2,8.6-54.2,22-79.7,36.4c-25.6,14.5-48.3,33.1-69.7,53.2c-8,7.5-7.6,7.7-16.6,2
							c-9.9-6.2-20.3-11.7-32.4-9.8c-19.3,3-29.8,16.7-36.2,33.6c-6,15.8,1,28.5,12.3,39.4c1,0.9,1.9,1.9,3,2.6c3,2.1,3.5,4.5,2,8
							c-11.6,26.2-17.6,54.1-25.4,81.5c-11.8,41.4-13.7,84.3-15.1,126.9c-0.4,13.2-8,21-13.8,29.9c-4.1,6.4-9,12.7-13.7,18.7
							c-4.5,5.7-13.7,7.6-19.6,13.2c-0.6,0.6-1.3,1.2-2,1.8c-73.1,70.6-121.1,155-138.4,256.2c-8.7,50.8-16.6,101.8-22.8,153
							c-2.5,20.7-3.6,41.7,1.5,62.5c1.4,5.6,3.2,8.1,9.1,9.2c22.3,4.2,44.6,7.4,67.3,6c6.2-0.4,7.6,1.7,9.2,7.7
							c10.4,39.7,14.5,80.5,23.4,120.4c3.5,15.8,3.2,16.1,20,16.1c168.4,0,336.9,0,505.3,0c4,0,8-0.3,12-0.2c4.3,0.1,6.6-2.1,7.4-6
							c0.7-3.5,0.9-7.1,1.3-10.6c2.7-21.7,2.3-43.6,2.4-65.4c0-4.7-0.2-8.2,6.4-9c35.8-4.5,59-25.1,70-59
							c9.1-28,13.9-57.1,14.2-86.7c0.2-12.9,0.3-25.9,0.1-38.8c-0.1-5.8,1.3-10.4,6.2-13.8c9.9-6.8,18.1-15.8,27.6-22.9
							c6-4.5,6.9-8.7,5.1-14.6C871.6,1205.5,868.6,1195.3,864.9,1185.2L864.9,1185.2z M843.4,657.1c-0.5,21.4,0.5,42.8-2.1,64.1
							c-0.4,3.1,0.1,6.2-1.7,9c-9.9,14.8-21,28.4-38.2,37.9c-1.9-11.2-0.8-20.5-0.7-29.9c0.1-21.8,0.4-43.7,0.6-65.5
							c0.1-8.9,0-17.7,1.6-26.6c2.1-11.1,1.6-11.2,12.4-13C842.4,628.6,844,630,843.4,657.1L843.4,657.1z M569.7,467.8
							c3.4-4.1,6.5-8.5,10-12.5c11.2-12.8,14.3-27.1,9.5-43.5c-4.4-15,0.2-20.3,16-20.1c15.7,0.3,27.9,12.8,28.8,29.1
							c0.5,7.8-2.2,15.6,1.4,23.4c7-13.4,7.8-26.8,0.8-40.3c-4.9-9.5-2.1-14.8,8.8-14.6c16.1,0.3,29.1,7.2,37.5,21.4
							c5.1,8.6,7.3,18.1,7.1,28.2c-0.1,3.2-1.3,8.5,3.8,8.4c4.6-0.1,3.9-5.2,3.9-8.6c-0.3-13.2-3.8-25.4-11.3-36.5
							c-4.4-6.5-3.6-8.6,3.4-11.9c8.4-4,16.5-2.5,24.2,1.8c19.7,11.1,30.1,44.2,20.6,64.9c-2.5,5.6-6.6,9.2-11.8,12
							c-14.7,8-30.6,11.8-47,13.4c-27.4,2.7-54.8,3.8-82.2,0.4c-7.1-0.9-13.9-2.5-20.5-5.1C567.3,475.7,565.8,472.6,569.7,467.8
							L569.7,467.8z M298.4,871.1c5.1-0.2,5.3-3.9,5.2-7.5c-0.3-16.1,1.8-32.1,2-48.1c0.7-56.9,15.7-110.8,32.8-164.4
							c0.8-2.5,2.2-4.9,3.2-7.3c2-4.9,5-6.9,10.4-4.9c6.8,2.6,14,1.8,21,1.4c2-0.1,3.5-1.4,3.7-3.2c0.3-1.9-1.4-3.4-3.2-3.5
							c-4.4-0.5-8.8-0.4-13.2-0.8c-13.6-1.2-24.7-6.6-32-18.7c-2.6-4.3-3.9-8.8-4.1-13.9c-0.6-22.6,21.8-41.8,43.5-36.7
							c10.5,2.4,20.2,6.8,26.6,16.4c1.2,1.8,2.3,3.8,6.1,4.4c-1.5-7.5,3.4-11.7,8-15.9c42.3-38.4,89.8-67.9,144.1-86
							c5.7-1.9,10.9-2.9,16.4,0.7c6.1,3.8,13.2,5.5,20.2,6.2c36.2,3.7,72.5,4.6,108.4-2.7c12.3-2.5,23.9-7.1,34.2-14.2
							c6.2-4.3,12.2-4.4,18.9-2.2c11.5,3.7,21.6,10.4,31.9,16.4c29.2,17.2,53.8,38.8,70.2,69.4c16.7,31.2,19.6,64.4,16.5,98.6
							c-1.7,18.2-7.6,35.7-15.9,52.1c-1.2,2.5-1.4,6.3-5.9,6.7c0-10.6-0.1-21.1,0-31.6c0.1-12,0.5-24.1,0.5-36.1
							c0-5.1-2.4-10.3,4.1-13.9c3-1.6,0.4-5-2-6.1c-2.3-1.1-5.1-1.4-7.7-1.6c-14.2-0.8-28.3-0.1-42.2,3.3c-6.7,1.6-6.8,2.1-2,8.9
							c1.6,2.2,0.7,4.1,0.7,6.2c-0.3,25.4-0.4,50.8-1,76.3c-0.2,8.4-1.7,16.8-2.1,25.2c-0.4,8,0.1,16.1-0.3,24.1
							c-0.2,4,4.6,7.8,1.1,11.3c-4.4,4.4-6.1-3.3-10-3.2c-1.7,0.1-4.2-1.2-5,0.2c-4.9,8.5-12.7,5.7-20,6.2c-6.6,0.4-7.6,8-11.2,12.2
							c-11.4-6.9-11.3-6.7-23.5,2.1c-2.8,2-6.3,3.2-9.6,4.4c-18,6.7-36.7,10-55.5,12.7c-21.1,3.1-42.3,4.2-63.6,3.7
							c-7.5-0.2-15.1-0.1-22.4-2.1c-3.7-1-7.5-1.5-12.4,1.6c10,8,22.1,7.6,33.1,13.3c-10.4,7.3-21.3,10.2-32.1,13.3
							c-2.1,0.6-4.4,0.4-6.6,0.8c-2.4,0.4-4.1,1.8-3.7,4.5c0.3,2.1,2.1,2.7,3.9,3c7.5,1.2,15,0.1,23.8-1.2
							c-1.8,11.2-3.5,21.9-5.2,32.5c-1.6,9.7-2.4,19.5,0.6,29.1c1.5,4.9,1.1,9.8-0.3,14.5c-8.7,30-22.4,57.1-45.8,78.5
							c-19.7,18-43.8,20-65.9,5.4c-4.3-2.9-4.3-6.4-4.1-10.3c0.8-12.9,1.2-25.8,2.8-38.6c3.2-25.7,2-51.6,5.1-77.3
							c2.9-23.5,1.9-47.2,2-70.8c0-7.7-1.2-15.1-3-22.4c-1.8-7.4-4.5-15.1-14.8-13.6c-0.4,0.1-1.2,0.3-1.3,0.2
							c-4.8-11.7-18.7-9.6-26.1-17.6c-5.4-5.9-11.7-10-19.8-4.5c-2.8,1.9-5,0.9-7.3-0.5c-8.5-5-14.5-0.5-19.4,5.8
							c-8.9,11.4-14.2,24.6-17,38.8c-1.8,8.7-3.3,17.5-4.8,26.2c-0.6,3.3-1.1,6.1-5.2,6.4c-7.4,0.6-10.1,6.4-13.1,11.9
							c-8,14.6-9.4,30.4-8.6,46.7c0.1,2.2,0,4.4,0,6.4c-3.8,2.3-5.2-0.9-6.8-2.5c-7.5-7.3-16.6-11.8-25.7-16.5c-2-1-4.2-2.3-4.3-4.7
							C293.5,870.8,296.3,871.2,298.4,871.1L298.4,871.1z M582.8,903c-4.2-6-1.7-9.6,5.6-10.6c0.4-0.1,0.9,0,1.3,0
							c19.7-1.8,26.2,4,22.2,23.4c-7.3,34.5-17.5,68.1-38,97.5c-14.3,20.5-33.2,32.7-58.1,35.7c-12.1,1.4-23.8-1.4-35.6-3
							c-7.2-0.9-17.2,1.2-20.7-5.9c-2.6-5.4,0.4-13.7,1-21.3c5.3-0.6,8.1,1.9,11.2,3.5c22.6,11,43.4,6.7,61.8-8.7
							c21.3-17.8,35.3-40.8,44.3-67c3.2-9.2,6.7-18.4,7.5-28.3C585.9,913,586.3,908.1,582.8,903z M582.9,885
							c-0.2-14.8,0.1-30.7,9.2-41.5c8-9.5,18.3-18.8,34.2-19.6c30-1.5,60-5.3,88.8-14.7c1.9-0.6,3.9-2.3,6.7-0.6
							c-8.7,42.7-4.8,86.5-9.3,130.4c-5-0.6-7.1-4.9-10.1-7.7c-16.6-15.9-35.9-27.6-57.6-34.8c-7.1-2.3-14.3-5-22.1-3
							c-2.2,0.6-4.3,1-6.1-0.9C607.8,882.8,596.1,884.2,582.9,885z M284.4,885.1c3.6-2.9,6.3-3.1,10.6-0.9
							c12.3,6.4,22.9,14.7,32.8,24.3c2.8,2.7,4.1,5.7,4.3,9.3c0.4,5.2,0.5,10.5,0.9,18.3c-17.5-10.7-34-18-48.3-29.2
							C273.8,898.4,274.1,893.6,284.4,885.1L284.4,885.1z M101.2,1376.2c-1.7,1.4-3.3,2.8-6,5.1c-4.5-12.2-5.1-24-3.9-35.7
							c6.8-65.5,15.5-130.8,28.7-195.2c18.9-91.7,64.9-168.8,131.3-233.8c2.2-2.2,4.7-4.1,7.2-6c11.1-8.1,11.6-8,22.2,0.8
							c12.7,10.5,27.4,18,41.5,26.5c9.6,5.8,15.3,12.5,17.1,24.7c3.1,20.2,5.3,40.5,9.1,60.5c0.4,2.1,0.1,4.5-0.2,6.7
							c-5.8,36.9-9.7,74-16.4,110.8c-5.4,29.7-8.2,59.9-15.2,89.4c-0.3,1.3-0.8,2.5-2,6.5c-5-9.9-5.8-18.3-8.1-26.2
							c-2-6.8-3.3-13.9-5.3-20.7c-1.7-5.8-1.8-10.9,0.9-16.6c2.8-6,6.1-12.7,1.8-21.1c-5.3,5.3-3.1,12.6-7.1,17.2
							c-5.7-5.1-2.7-14.1-9.8-19.6c-1.8,6.9,0.3,12.6,1.7,18.2c6.7,26.7,13.7,53.4,20.8,80c0.8,3.1,1.5,5.8,0.7,9.1
							c-3,12.1-6,24.2-8.3,36.4c-1.1,5.7-3,7.8-9.1,8.7c-35.5,4.9-70.8,12.1-104.7,23.8C156.2,1336.6,127.7,1355,101.2,1376.2
							L101.2,1376.2z M166.1,1354.7c-3.6-9.6-3.5-10,5.2-14.2c7.2-3.5,14.5-6.9,22.1-9.1c23.3-6.8,46.9-11.9,73.2-16.5
							c-6.6,6.1-11.4,10.6-16.1,15.1c-1.3,1.3-1.8,3.1-0.6,4.8c1.8,2.5,3.7,1.5,5.6,0.1c6-4.5,11.9-9.4,18.1-13.6
							c6.7-4.5,13.9-7.7,23.2-6.1c0.2,11.1-4.5,20.7-7.4,30.7c-1.4,4.7-3.3,9.2-4.7,13.9c-0.6,2.1-0.5,4.7,1.8,5.8
							c2.5,1.1,4.2-0.7,5.2-2.8c1-2,1.5-4.2,2.4-6.2c9-21.1,12.6-43.6,16.5-65.9c4.7-26.8,14-52.5,18.1-79.4
							c7-46.2,15.6-92.1,20.5-138.6c1.1-10.6,2.7-21.2,4.2-31.7c2.6-18.4,0.3-36.4-2.9-54.5c-3.6-20.1-8.5-40.1-10.8-60.4
							c-2.6-22.9-5.1-46.2,1.9-69c2.1-6.9,4.3-14.4,12.6-18.6c2.5,20-7.3,39-0.5,58.7c5.9-4,5-8.7,5.2-13c1.4-25.8,4-51.5,8.5-76.9
							c2.2-12.4,5.5-24.3,12.2-35.1c1.9-3,3.9-6,6.3-8.6c3-3.2,7-4.5,10.7-1.8c3.4,2.6,0,5.6-0.9,8.3
							c-12.5,35.3-21.9,71.3-23.5,109.1c-0.2,5.1,0,5.1,3.2,11.9c3.7-1.6,2.8-5.1,2.9-7.9c1.4-35.4,10.4-69.4,19.5-103.4
							c1.5-5.6,3.8-11,7.8-15.4c5.2-5.7,12.1-5.6,17.1,0.3c1.8,2.1,2.7,4.2,1.2,7.2c-13.3,26.2-17.2,55-22.5,83.4
							c-2.2,11.8-4.4,23.6-5,35.6c-0.1,2.6-0.4,5.4,1.8,7.6c4.1,0.6,3.8-2.6,4.1-5.1c4.8-33,9.1-66.1,18.4-98.3
							c1.7-6,3.2-12.1,6.6-17.4c2.8-4.4,6.3-7.8,12.1-4.7c5.2,2.9,7.5,9,5.3,14.5c-15,37.6-19.5,77.4-23,117.3
							c-0.1,0.6,1,1.2,2.3,2.8c3.9-6,3.9-12.5,4.7-18.8c3.4-28.3,7.7-56.4,15.8-83.8c1.6-5.5,3-11.2,6.6-16c3.8-5.1,6.8-4.6,9.6,1.3
							c2.6,5.4,2.6,11.3,2.8,17c0.8,26.8-0.8,53.4-2.7,80.1c-3.3,45.3-5.3,90.7-8.6,136c-2.4,31.9-6.1,63.8-9.2,95.6
							c-1.4,13.7-2,27.6-2.7,41.3c-3,53.2-12.7,105.1-25.5,156.6c-7,28.1-12.6,56.5-20.6,84.3c-8.8,31.1-23.7,58.3-47.5,80.6
							c-32.1,30.2-74.5,30.1-105.8-0.9c-27.2-27-47.4-58.7-61.9-94.1C174.4,1376.3,170.2,1365.5,166.1,1354.7L166.1,1354.7z
							 M737.6,1461.2c-0.4,11.6-1.8,23.2-1.3,34.7c0.4,9.1,2,18.2,0.9,27.4c-1.6,13.3-1.3,12-13.3,12c-166.6-0.1-333.2,0-499.9,0.1
							c-2.7,0-5.3,0-8,0c-11.2-0.2-11.4-0.1-13.5-11.7c-5.4-28.8-10.5-57.7-15.9-86.5c-1.5-7.8-3.5-15.5-5.6-24.4
							c4.5,2.9,5.5,6.7,7.4,9.9c13.7,23.6,30,45,48.9,64.7c26.5,27.7,81,34,114.2,1.7c26.7-26.1,43.8-56.9,52.8-92.6
							c13.9-55.2,27.9-110.5,36.8-166.8c5.1-32.1,7.2-64.6,9.2-97c1.7-27,2.9-54.1,7.9-81.8c15.2,2.2,29.1,5.4,43.2,6.2
							c25.7,1.4,49.2-4.8,67.8-24.2c20.7-21.4,32-48,40.2-75.9c4.9-16.6,10.9-33,10.8-50.7c0-4.7,2.6-6,6.8-6c7.2,0,14,2.2,20.6,4.8
							c24.7,10,45.5,25.5,62.9,45.8c2.6,3,2.9,6.2,3.6,9.7c3.5,19,2.5,38.2,2.1,57.4c-0.8,37.4-1.6,74.9-3.2,112.2
							c-0.9,21.3-3,42.6-5.4,63.8c-2.3,19.9-3.6,39.9-4.7,59.9c-1.9,34.2-3.9,68.5-5.4,102.7c-0.8,18.7-0.6,37.4,2.2,56
							c2.7,17.4,11.1,29.5,28.6,34.8C737.9,1450.3,738,1450.8,737.6,1461.2L737.6,1461.2z M823.8,1348.6c-3.3,16.1-5.8,32.5-12,47.8
							c-10.6,26.3-29.8,42.8-57.7,48c-13.6,2.5-26.4-2.1-37.5-9.8c-9.2-6.4-10-17.6-10.9-27.7c-1.9-20.5-1.5-41-0.7-61.5
							c1.7-40.5,3.5-81,6.2-121.4c1.6-25.3,5.4-50.4,7.2-75.7c3.6-52.5,4-105.2,2.7-157.7c-0.5-19-3.3-38.1-2-57.2
							c2.4-35.1,1.1-70.4,4.9-105.4c1.1-9.8,3.7-19.3,8.9-27.7c3.9-6.3,7.9-6.2,12,0c3.1,4.7,3.2,10,3.4,15.4
							c1,23.2-3.7,46.2-3.1,69.4c0.1,4.7-1.5,9.7,2.3,14.7c3.3-2.1,3.1-4.5,3.1-6.5c-0.9-28.5,4.7-56.9,2.6-85.5
							c0-0.4-0.1-0.9-0.1-1.3c0.5-9.2,5.4-18,10.5-18.6c4.8-0.6,8.5,5.3,10.5,16.6c4,23.4,3.7,47,3.5,70.6c0,4.6-1.3,9.5,2.3,14.6
							c4.9-4.8,4.5-10.1,4.7-15.2c0.9-24.6-1.6-48.9-6.3-73c-0.9-4.5-1.5-8.7,0.3-13c1.1-2.4,1.9-5.4,4.9-5.8c2.9-0.4,5,1.7,6.3,4.1
							c1.5,2.7,2.9,5.6,3.6,8.6c5.3,20.8,9,41.7,6.1,63.3c-1,7.3-2.5,15,2.2,21.7c5-0.9,4.3-4.5,4.4-7.3c1.1-26.3,0.8-52.6-6.7-78.2
							c-0.6-2.1-1-4.4-1.1-6.5c-0.1-1.8,0.9-3.4,2.7-4.2c2.1-0.9,3.4,0.6,4.3,2c3.2,4.5,4.4,9.8,5.3,15c3.6,22,5.5,44.1,2.1,66.4
							c-0.9,6.1-0.5,12.4-0.5,18.6c0,1.2,1,2.5,2.5,2.7c1.5,0.1,2.3-0.8,3-1.9c1.7-2.9,1.4-6,1.5-9.1c0.3-11.1,0.5-22.3,0.7-33.4
							c0.1-2.7,0-5.3,0-8c0-5.1,0.4-11,6.8-10.9c6.6,0.1,6.1,6.6,6.4,11.3c1.2,17.6-2.7,34.5-7.1,51.4
							c-10.2,38.7-21,77.3-30.5,116.2c-6.5,26.4-8.7,53.5-10.7,80.6c-3.4,46.3,0.6,92.6,2,138.8c0.7,24.5,1.1,49,6.1,73.1
							c4.3,20.8,9.2,41.5,8.4,64.8c6.3-8.9,6.6-14.8,3.2-40.8c2.4-2.3,4.9,2.9,6.8,0.3c2.1-2.7-0.4-4.9-2.2-6.8
							c-3.1-3.6-7.2-5.9-8.6-11.3c-5.7-22.2-5.9-22.4,14.3-32.1c3.9-1.9,7.6-4.5,13.3-5C827.7,1293.8,829.3,1321.3,823.8,1348.6
							L823.8,1348.6z M849.6,1236.5c-15.4,14-32.3,26.4-52,34c-10-24.2-8.6-215,2-245.8c11.2,25.5,22,50.3,29.9,76.2
							c9.9,32.3,21.1,64.2,31.1,96.5C868.9,1224,871,1217,849.6,1236.5L849.6,1236.5z"/>
					</g>
					<g>
						<path class="st1" d="M512.8,573.5c-2.9-0.3-6.3,0.6-6.5-3.2c-0.1-2.4,1.9-4.1,4.2-4.5c25.1-4.3,42.6-19.9,58.1-38.9
							c6.4-7.9,12.9-9.3,16.9-5.8c3.9,3.3,2.3,9.6-5.2,17.1c-16.6,16.5-35.3,29.5-58.7,34C518.5,572.8,515.4,573.1,512.8,573.5
							L512.8,573.5z"/>
					</g>
					<g>
						<path class="st1" d="M797.4,557.7c-17.1-0.5-33.1-5.2-48.8-11.6c-4.1-1.7-8-4-10.6-7.8c-4.4-6.4-1.5-12.7,6.1-13.4
							c6.1-0.6,11,2.3,16.1,5.2c14.2,8.1,28.6,16.1,44.7,20c2.9,0.7,6.9,0.9,5.8,5.3c-0.8,3.4-4.4,1.9-6.8,2.2
							C801.9,557.9,799.7,557.7,797.4,557.7L797.4,557.7z"/>
					</g>
					<g>
						<path class="st1" d="M467.7,595.3c-8.1-8-21.6-5.7-28.4,4.9c-1.4,2.2-3.2,4.5-1.6,7.3c1.8,3.2,4.8,4,8,3
							c7.2-2.2,14.2-4.9,21.8-5.1c2.5-0.1,3.9-1.8,3.7-3.8C470.8,598.5,469.3,596.9,467.7,595.3L467.7,595.3z M462.7,603.7
							c-4.9,0.2-9.4,1.9-14,3.3c-2,0.6-4,0.1-5.1-1.9c-1-1.8,0.2-3.3,1.1-4.7c4.4-6.8,13.1-8.3,18.3-3.2c1,1,2,2.1,2.2,4.1
							C465.2,602.6,464.3,603.7,462.7,603.7L462.7,603.7z"/>
					</g>
					<g>
						<path class="st1" d="M780.7,659.8c-1.9-1.2-4.3-0.6-6.2,0.7c-7.7,5.3-12,12.6-12.4,24.4c0.2,2.2,1.1,7.2,6.1,8.1
							c5.2,0.9,7.8-3.7,8.5-8.2c1.1-6.6,2.8-12.8,4.9-19.1C782.3,663.7,782.9,661.1,780.7,659.8L780.7,659.8z M779.1,668.5
							c-1.5,4.6-2.8,9.2-3.6,14c-0.5,3.3-2.4,6.7-6.2,6c-3.6-0.6-4.3-4.3-4.5-5.9c0.3-8.7,3.5-14,9.1-17.8c1.4-1,3.1-1.4,4.5-0.5
							C780.1,665.1,779.6,667,779.1,668.5L779.1,668.5z"/>
					</g>
					<g>
						<path class="st1" d="M660.7,595.7c-2.9-0.7-6.2-1.2-9.1-0.6c-9.1,1.9-17.1,6.2-22.2,15.3c8.9-2.6,17.7-1.4,26.4-2.1
							c1.7-0.1,3.6-0.2,5.2-0.7c2.6-0.8,5-2.4,5.2-5.4C666.4,598.5,663.8,596.5,660.7,595.7z M661.5,601.8c-0.1,2-1.7,3-3.5,3.6
							c-1.1,0.4-2.3,0.4-3.5,0.5c-5.7,0.5-11.6-0.4-17.5,1.4c3.4-6,8.7-8.8,14.7-10.1c1.9-0.4,4.1-0.1,6,0.4
							C659.9,598,661.7,599.4,661.5,601.8L661.5,601.8z"/>
					</g>
					<g>
						<path class="st1" d="M346,586.8c16.8-6.2,33.2,0.7,38.6,15.4c0.8,2.2,1.5,4.5-0.9,5.8c-2.4,1.3-4.3-0.3-5.3-2.5
							c-5.3-11.7-15.3-15.1-27-15.8C349.6,589.6,347.9,589.3,346,586.8z"/>
					</g>
					<g>
						<path class="st1" d="M815.4,647.5c1.8,17.5,1.9,35-1.6,53.9C809.6,688.8,810.4,656.1,815.4,647.5z"/>
					</g>
					<g>
						<path class="st1" d="M715,721.8c-5.2-5.9-11.9-9.1-19.2-11.3c-26.5-7.7-49.5,0.5-70.8,16c-5.4,4-9.6,9.3-12.1,15.6
							c-4.3,11,0.8,18.4,12.5,19c6.9,0.4,13.1-1.7,19.1-4.6c12.7-6.1,26-8.1,40-6.3c6.6,0,13.2,0.4,19.8-0.1
							c6.8-0.5,11.7-4.6,13.8-10.9C720.2,733.2,719.6,727.1,715,721.8L715,721.8z M630.3,754.2c-4.5,1.6-9.1,1.2-11.9-3
							c-3.1-4.6,0.4-8.4,2.9-11.9c3.6-4.9,7.4-7.9,14.5-6.2c8.5,2.1,17.5,2.1,27.2,9.3C650.7,746.9,640.5,750.6,630.3,754.2z
							 M672.4,721.3c-6.8,0-13.6,0-20.4,0c13.1-8.1,26.2-6.3,39.3-3.8c0,1.3,0.1,2.5,0.1,3.8C685,721.3,678.7,721.3,672.4,721.3
							L672.4,721.3z"/>
					</g>
					<g>
						<path class="st1" d="M591.3,629.7c-4.5-3.7-9.8-5.9-15.3-7.9c-23.1-8.3-46.2-6-69.2,0.2c-3.2,0.9-5.8,2.3-5.1,6.6
							c1.1,0.4,2.3,1.1,3.5,1.2c10.9,1,10.9,1,11.1,12c0.9,45.5,0.9,90.9-1.2,136.3c-0.4,8.4,0.3,16.9,1.1,25.3
							c0.8,8.5,5.3,12,12,10c11.8-3.5,23.8-5.3,36-3.2c5.5,0.9,8.6-1.6,10.1-6.2c1.1-3.3,1.4-7,1.4-10.5c0-14.2-0.2-28.5-0.3-42.8
							c-0.1-13.4,3.4-26.6,1.6-40c-3.3-24-1.5-48-2.1-72.1c0-2.1-0.4-4.6,3.2-5.5c2.7,1.3,5.8,2.8,9,4.2c2.1,0.9,4.6,1.4,6-0.7
							C594.8,634,593.5,631.5,591.3,629.7z M571.3,790.7c-0.4,4.3-0.4,9.2-3.6,12.6c-3.4,3.6-7.6-0.6-11.3,0.2
							c-8.7,1.7-17.8,1.2-26.1,3.5c-8.3,2.3-8.5-1.1-9.5-7.3c-2.1-12.9-2.3-25.9-1-38.6c2.2-20.9,0.9-41.8,2.1-61.8
							c-1.3-20.4,0.1-40-2-59.6c-1.2-10.5,0.1-11.1,10-12.9c10.7-2,21.1-0.8,31.6,1c5.3,0.9,9,3.6,8.1,9.9c-0.1,0.4,0,0.9,0,1.3
							c-0.4,25.8,0.4,51.6,1.9,77.3c0.6,10.2,0.4,20.4-1.3,30.6c-1,6-0.7,12.4,0.5,18.6C572.4,773.8,572.1,782.3,571.3,790.7
							L571.3,790.7z"/>
					</g>
					<g>
						<path class="st1" d="M654.8,680.6c-1.3-8.5-6.7-14.4-13.5-18.8c-6-3.9-12.6-6.7-20.3-1.3c5.4,6,9.7,12.5,13.7,19.3
							c2.5,4.2,6,7.8,11.1,8.8C651.5,689.8,655.7,686.3,654.8,680.6L654.8,680.6z M650.2,682.2c-1.9,1.8-4.4,1.3-6.1,0
							c-2.4-1.9-4.6-4.2-6.4-6.7c-2.8-3.9-5.2-8.1-8.9-14c11.8,2.1,17.2,8,21.1,15.9C650.7,678.9,651.8,680.6,650.2,682.2
							L650.2,682.2z"/>
					</g>
					<g>
						<path class="st1" d="M729.8,648c-0.8,3.2-0.7,6.2,2.1,8.4c2.9,2.3,5.8,1.4,8.6-0.2c5.1-3.1,8.1-8,11.1-12.9
							c4-6.5,8.6-12.1,17.9-15.4C751.4,623.1,733.3,633.3,729.8,648z M736,653.4c-1.5-11.4,1.8-15.6,17.7-21.8
							C748.5,639.2,746,649.3,736,653.4z"/>
					</g>
					<g>
						<path class="st1" d="M488.2,651.5c-10.7-2-28.1,13.5-28.1,24.8c0,3.1,0,6.3,3.3,8.1c3.9,2.1,7.1,0,9.3-2.7
							c6.2-8,12.1-16.2,18-24.5C492.8,654.3,491.5,652.1,488.2,651.5L488.2,651.5z M469.6,678.6c-1.3,1.3-3.2,2.1-4.8,1.1
							c-1.6-0.9-2-3-1.5-4.8c2.8-9.8,9.9-14.7,19.4-17C479.2,665.4,475.5,672.7,469.6,678.6L469.6,678.6z"/>
					</g>
					<g>
						<path class="st1" d="M548.2,751.6c-4.8-31.6-0.2-63.1,1.5-94.6C550.8,688.6,551.8,720.1,548.2,751.6z"/>
					</g>
					<g>
						<path class="st1" d="M534.6,713c-6.8-22.3-6.9-64.4,0-74.5V713z"/>
					</g>
				</g>
			</g>
			<g>
				<path class="st1" d="M1792.1,953.1v-95.5h-166.6v-80.7L1784,401.3h106.6v365.1h37.8v91.1h-37.8v95.5H1792.1z M1792.1,766.4
					V623.5h-3.7l-58.5,142.9H1792.1z"/>
			</g>
			<g>
				<path class="st1" d="M1333.8,884.2v-414c0-40.7,25.9-68.9,74.1-68.9h110.3c48.9,0,74.8,28.9,74.8,69.6v413.2
					c0,41.5-31.1,68.9-74.1,68.9h-112.6C1364.9,953.1,1333.8,925.7,1333.8,884.2z M1448.6,867.1h31.1c10.4,0,12.6-6.7,12.6-11.9
					V499.1c0-5.2-2.2-11.1-12.6-11.1H1450c-10.4,0-15.6,5.9-15.6,11.1v356.2C1434.5,862.7,1443.4,867.1,1448.6,867.1z"/>
			</g>
			<g>
				<path class="st1" d="M1168.7,953.1v-95.5h-166.6v-80.7l158.5-375.5h106.6v365.1h37.8v91.1h-37.8v95.5H1168.7z M1168.7,766.4
					V623.5h-3.7l-58.5,142.9H1168.7z"/>
			</g>
			<g>
				<path class="st1" d="M1865.3,1542.8v-134.3h45.1c11.9,0,18,7,18,16.9V1526c0,10.1-7.4,16.8-17.7,16.8H1865.3z M1890.2,1521.7
					h10.8c2.5,0,3.1-1.6,3.1-2.9v-86.5c0-1.3-0.5-2.7-3.1-2.7h-10.8V1521.7z"/>
				<path class="st1" d="M1812.3,1542.8H1788v-134.3h23.6l16.2,54.5h0.9v-54.5h24.7v134.3H1830l-16.8-63.1h-0.9V1542.8z"/>
				<path class="st1" d="M1740.9,1521.7h7.6c2.3,0,3.1-1.6,3.1-2.9v-110.3h24.5V1526c0,10.1-7.6,16.8-18,16.8h-27.4
					c-10.1,0-17.7-6.7-17.7-16.8v-117.6h24.5v110.3C1737.5,1520.6,1739.5,1521.7,1740.9,1521.7z"/>
				<path class="st1" d="M1638,1526v-100.8c0-9.9,6.1-16.8,18-16.8h26.9c11.9,0,18.2,7,18.2,16.9V1526c0,10.1-7.6,16.8-18,16.8
					h-27.4C1645.5,1542.8,1638,1536.1,1638,1526z M1665.9,1521.7h7.6c2.3,0,3.1-1.6,3.1-2.9v-86.5c0-1.3-0.7-2.7-3.1-2.7h-7.2
					c-2.5,0-3.8,1.4-3.8,2.7v86.5C1662.5,1520.6,1664.5,1521.7,1665.9,1521.7z"/>
				<path class="st1" d="M1577.7,1542.8v-134.3h53.6v21.1h-29v44.5h27v20.9h-27v47.8H1577.7z"/>
				<path class="st1" d="M1517,1542.8h-24.7v-113.2H1473v-21.1h63.3v21.1H1517V1542.8z"/>
				<path class="st1" d="M1405.2,1526v-100.8c0-9.9,6.1-16.8,18-16.8h26.9c11.9,0,18.2,7,18.2,16.9V1526c0,10.1-7.6,16.8-18,16.8
					h-27.4C1412.7,1542.8,1405.2,1536.1,1405.2,1526z M1433.1,1521.7h7.6c2.3,0,3.1-1.6,3.1-2.9v-86.5c0-1.3-0.7-2.7-3.1-2.7h-7.2
					c-2.5,0-3.8,1.4-3.8,2.7v86.5C1429.7,1520.6,1431.7,1521.7,1433.1,1521.7z"/>
				<path class="st1" d="M1352.2,1542.8h-24.3v-134.3h23.6l16.2,54.5h0.9v-54.5h24.7v134.3h-23.4l-16.8-63.1h-0.9V1542.8z"/>
				<path class="st1" d="M1231.2,1542.8v-134.3h54.1v21.1h-29.6v44.4h27.8v21.1h-27.8v26.7h29.6v21.1H1231.2z"/>
				<path class="st1" d="M1188.5,1542.8h-14.2c-10.1,0-17.7-6.7-17.7-16.8v-100.8c0-9.9,6.1-16.8,18-16.8h26.9
					c11.9,0,17.9,7,17.9,16.9v29.9h-24.2v-23.3c0-1.3-0.9-2.5-3.1-2.5h-7.2c-2.5,0-3.8,1.3-3.8,2.5v86.7c0,1.8,2,2.9,3.4,2.9h10.5
					c0-9.2,0.2-18,0.2-27.2h-7.2v-20.6h31.4v68.9h-9.9l-5.4-7.9C1201.1,1539.5,1195.7,1542.8,1188.5,1542.8z"/>
				<path class="st1" d="M1103.3,1542.8h-26.1l21.1-134.3h31l20.7,134.3h-26.1l-2.2-20h-16.6L1103.3,1542.8z M1119.9,1500.8
					l-6.1-54.1h-0.9l-6,54.1H1119.9z"/>
				<path class="st1" d="M1019.9,1542.8v-134.3h43.6c11.9,0,18.2,7,18.2,16.9v51.4c0,11-2.5,20.9-18.2,20.9h-19.1v45.1H1019.9z
					 M1044.4,1476.6h9.7c2.3,0,3.2-1.6,3.2-2.9v-41.5c0-1.3-0.9-2.7-3.2-2.7h-9.7V1476.6z"/>
				<path class="st1" d="M1856.4,1300.6h72v61.2h-72V1300.6z M1858,1271V981.7h69.4V1271H1858z"/>
				<path class="st1" d="M1717.4,1302.2h23c5.6,0,8.2-4.6,8.2-6.6v-13.3c0-21.9-3.1-26-21.4-46.4l-60.2-66.3
					c-18.9-20.4-27.6-31.1-27.6-57.7v-84.2c0-28.1,16.8-45.9,51-45.9h73c33.7,0,51.5,19.9,51.5,48v94.9H1746V1049
					c0-3.6-2.6-7.7-9.2-7.7h-18.4c-6.6,0-9.7,4.1-9.7,6.1v49.5c0,16.3,5.1,23,12.2,30.1l70.4,67.4c19.9,19.4,25.5,36.2,25.5,65.3
					v56.1c0,29.1-20.4,45.9-50,45.9h-77.6c-30.1,0-50.5-18.9-50.5-47.5v-76h69.4v55.6C1708.3,1299.1,1714.4,1302.2,1717.4,1302.2z"
					/>
				<path class="st1" d="M1444.5,1361.9V981.7h123.5c33.7,0,51.5,19.9,51.5,48v145.5c0,31.1-7.1,59.2-51.5,59.2H1514v127.6H1444.5z
					 M1514,1174.6h27.6c6.6,0,9.2-4.6,9.2-8.2V1049c0-3.6-2.6-7.7-9.2-7.7H1514V1174.6z"/>
				<path class="st1" d="M1232.2,1314.4v-285.3c0-28.1,17.4-47.5,51-47.5h76c33.7,0,51.5,19.9,51.5,48v284.8
					c0,28.6-21.4,47.5-51,47.5h-77.6C1253.7,1361.9,1232.2,1343,1232.2,1314.4z M1311.3,1302.2h21.4c6.6,0,8.7-4.6,8.7-8.2v-245
					c0-3.6-2-7.7-8.7-7.7h-20.4c-7.1,0-10.7,4.1-10.7,7.7v245C1301.6,1299.1,1307.3,1302.2,1311.3,1302.2z"/>
				<path class="st1" d="M1019.9,1314.4v-285.3c0-28.1,17.4-47.5,51-47.5h76c33.7,0,51.5,19.9,51.5,48v284.8
					c0,28.6-21.4,47.5-51,47.5h-77.6C1041.3,1361.9,1019.9,1343,1019.9,1314.4z M1099,1302.2h21.4c6.6,0,8.7-4.6,8.7-8.2v-245
					c0-3.6-2-7.7-8.7-7.7H1100c-7.1,0-10.7,4.1-10.7,7.7v245C1089.3,1299.1,1094.9,1302.2,1099,1302.2z"/>
			</g>
		</g>
		<g>
			<g>
				<defs>
					<rect id="SVGID_00000112599413062669848700000002214421567560550323_" x="84.2" y="381.1" width="842" height="1161.7"/>
				</defs>
				<clipPath id="SVGID_00000165208168033495855780000008822192381341946272_">
					<use xlink:href="#SVGID_00000112599413062669848700000002214421567560550323_"  style="overflow:visible;"/>
				</clipPath>
			</g>
		</g>
	</g>
</g>
</svg>
