<svg width="709" height="400" viewBox="0 0 709 400" fill="none" xmlns="http://www.w3.org/2000/svg">
<path d="M530.574 400H458.628V0H531.111L582.118 105.772H584.802L635.272 0H708.829V400H636.346V153.02H633.661L587.487 240H578.896L532.722 153.02H530.574V400Z" fill="#0D141A"/>
<path d="M368.394 400H236.313V0H368.394C404.904 0 423.159 21.4765 423.159 50.4698V178.255C423.159 197.584 417.253 215.839 391.481 222.819V224.966C413.495 231.946 423.159 247.517 423.159 270.604V350.067C423.159 379.06 402.22 400 368.394 400ZM308.797 195.436H342.085C348.528 195.436 351.213 190.067 351.213 186.309V71.4094C351.213 67.651 350.139 62.8188 342.085 62.8188H308.797V195.436ZM351.213 323.221V265.772C351.213 262.013 348.528 257.718 341.011 257.718H308.797V337.181H338.864C350.139 337.181 351.213 330.201 351.213 323.221Z" fill="#0D141A"/>
<path d="M77.8523 400H0L62.8188 0H155.168L216.913 400H139.06L132.617 340.403H83.2215L77.8523 400ZM127.248 274.899L108.993 113.825H106.309L88.5906 274.899H127.248Z" fill="#0D141A"/>
</svg>
