<?xml version="1.0" encoding="utf-8"?>
<!-- Generator: Adobe Illustrator 28.0.0, SVG Export Plug-In . SVG Version: 6.00 Build 0)  -->
<svg version="1.1" id="Layer_1" xmlns="http://www.w3.org/2000/svg" xmlns:xlink="http://www.w3.org/1999/xlink" x="0px" y="0px"
	 viewBox="0 0 792.6 395.4" style="enable-background:new 0 0 792.6 395.4;" xml:space="preserve">
<style type="text/css">
	.st0{fill:#F23833;stroke:#000000;stroke-width:2;stroke-linejoin:round;}
	.st1{fill:none;stroke:#000000;stroke-width:2;stroke-dasharray:9,9;}
	.st2{fill:#31F8FD;stroke:#000000;stroke-width:2;}
	.st3{fill:#FA7A54;}
	.st4{fill:none;stroke:#000000;stroke-width:3;}
	.st5{fill:#FCD1CE;}
	.st6{fill:none;stroke:#000000;stroke-width:2;}
	.st7{fill:#FFFFFF;}
	.st8{fill:#31F8FD;stroke:#000000;stroke-width:2;stroke-linejoin:round;}
	.st9{fill:none;stroke:#000000;stroke-width:1.5;stroke-linecap:round;stroke-linejoin:round;}
	.st10{fill:#FFD735;stroke:#000000;stroke-width:2;stroke-linejoin:round;}
	.st11{fill:#FFFFFF;filter:url(#Adobe_OpacityMaskFilter);}
	
		.st12{mask:url(#path-21-inside-1_643_14738_00000147901566423464320300000017665893119356863891_);fill:none;stroke:#000000;stroke-width:3;stroke-linejoin:round;}
	.st13{fill:none;stroke:#000000;stroke-width:1.5;stroke-linejoin:round;}
	.st14{fill:#FFFFFF;filter:url(#Adobe_OpacityMaskFilter_00000137123800025803328950000009454556387800316288_);}
	
		.st15{mask:url(#path-23-inside-2_643_14738_00000005245008100264535720000002184667787441581485_);fill:none;stroke:#000000;stroke-width:3;stroke-linejoin:round;}
	.st16{fill:none;stroke:#000000;stroke-linecap:round;stroke-linejoin:round;}
	.st17{fill:#B3FC1C;stroke:#000000;stroke-width:2;stroke-linejoin:round;}
</style>
<path class="st0" d="M473.1,179.1c0,8.4-0.8,16.6-2.3,24.6l-11.7-2.4c1.4-7.2,2.1-14.6,2.1-22.2s-0.7-15-2.1-22.2l11.7-2.4
	C472.3,162.5,473.1,170.7,473.1,179.1z M441.5,94.5c10.7,12.3,19.2,26.8,24.6,42.6l-11.3,3.8c-4.9-14.3-12.5-27.3-22.2-38.5
	L441.5,94.5z M386.1,57.1c15.8,5.4,30.2,13.9,42.6,24.6l-7.9,8.9c-11.2-9.7-24.2-17.3-38.5-22.2L386.1,57.1z M344.1,50.1
	c8.4,0,16.6,0.8,24.6,2.3l-2.4,11.7c-7.2-1.4-14.6-2.1-22.2-2.1s-15,0.7-22.2,2.1l-2.4-11.7C327.5,50.9,335.7,50.1,344.1,50.1z
	 M259.5,81.7c12.4-10.7,26.8-19.2,42.6-24.6l3.8,11.3c-14.3,4.9-27.3,12.5-38.5,22.2L259.5,81.7z M222.1,137.1
	c5.4-15.8,13.9-30.2,24.6-42.6l8.9,7.9c-9.7,11.2-17.3,24.2-22.2,38.5L222.1,137.1z M215.1,179.1c0-8.4,0.8-16.6,2.3-24.6l11.7,2.4
	c-1.4,7.2-2.1,14.6-2.1,22.2s0.7,15,2.1,22.2l-11.7,2.4C215.9,195.8,215.1,187.5,215.1,179.1z M255.7,255.8l-8.9,7.9
	c-10.7-12.4-19.2-26.8-24.6-42.6l11.3-3.8C238.3,231.6,246,244.7,255.7,255.8z M267.4,267.6c11.2,9.7,24.2,17.3,38.5,22.2l-3.8,11.3
	c-15.8-5.4-30.2-13.9-42.6-24.6L267.4,267.6z M344.1,308.1c-8.4,0-16.6-0.8-24.6-2.3l2.4-11.7c7.2,1.4,14.6,2.1,22.2,2.1
	s15-0.7,22.2-2.1l2.4,11.7C360.7,307.3,352.5,308.1,344.1,308.1z M386.1,301.1l-3.8-11.3c14.3-4.9,27.3-12.5,38.5-22.2l7.9,8.9
	C416.4,287.2,401.9,295.7,386.1,301.1z M432.5,255.8c9.7-11.2,17.3-24.2,22.2-38.5l11.3,3.8c-5.4,15.8-13.9,30.2-24.6,42.6
	L432.5,255.8z"/>
<path class="st0" d="M400.1,204.7c1.8-4.7,3.2-9.5,4.1-14.3l7.3,1.3c-1,5.3-2.4,10.5-4.5,15.7c-2,5.2-4.5,10.1-7.3,14.6l-6.3-4
	C396,213.8,398.2,209.4,400.1,204.7z M412.8,178.9l-7.4-0.3c0.3-10-1.3-19.9-4.6-29.2l7-2.6C411.5,156.9,413.2,167.8,412.8,178.9z
	 M382.3,109.7c8.4,7.2,15.3,15.8,20.4,25.3l-6.6,3.4c-4.6-8.7-10.9-16.5-18.5-23L382.3,109.7z M354.6,101.8
	c-4.7-1.8-9.5-3.2-14.3-4.1l1.3-7.3c5.3,1,10.5,2.4,15.7,4.5c5.2,2,10.1,4.5,14.6,7.3l-4,6.3C363.8,105.8,359.3,103.6,354.6,101.8z
	 M328.5,96.4c-10-0.3-19.9,1.3-29.2,4.6l-2.6-7c10.2-3.6,21.1-5.4,32.1-5L328.5,96.4z M259.7,119.5c7.2-8.4,15.8-15.3,25.3-20.4
	l3.4,6.6c-8.7,4.6-16.5,10.9-23,18.5L259.7,119.5z M244.8,144.5c2-5.2,4.5-10.1,7.3-14.6l6.3,4c-2.6,4.1-4.8,8.6-6.6,13.3
	c-1.8,4.7-3.2,9.5-4.1,14.3l-7.3-1.3C241.3,155,242.8,149.7,244.8,144.5z M244,205.1c-3.6-10.2-5.4-21.1-5-32.1l7.4,0.3
	c-0.3,10,1.3,19.9,4.6,29.2L244,205.1z M255.7,213.4c4.6,8.7,10.9,16.5,18.5,23l-4.7,5.7c-8.4-7.2-15.3-15.8-20.4-25.3L255.7,213.4z
	 M297.2,250.1c4.7,1.8,9.5,3.2,14.3,4.1l-1.3,7.3c-5.3-1-10.5-2.5-15.7-4.5c-5.2-2-10.1-4.5-14.6-7.3l4-6.3
	C288,246,292.5,248.3,297.2,250.1z M323,262.9l0.3-7.4c10,0.3,19.9-1.3,29.2-4.6l2.6,7C344.9,261.5,334,263.2,323,262.9z
	 M366.8,252.7l-3.4-6.6c8.7-4.6,16.5-10.9,23-18.5l5.7,4.7C385,240.7,376.4,247.6,366.8,252.7z"/>
<circle class="st1" cx="59.1" cy="109.1" r="32"/>
<rect x="58.5" y="129.4" transform="matrix(0.9957 -9.271816e-02 9.271816e-02 0.9957 -19.0407 36.9888)" class="st2" width="660.1" height="188"/>
<rect x="75.7" y="104.9" transform="matrix(0.9957 -9.265941e-02 9.265941e-02 0.9957 -16.6394 38.4099)" class="st3" width="659.2" height="187"/>
<rect x="75.7" y="104.9" transform="matrix(0.9957 -9.265941e-02 9.265941e-02 0.9957 -16.6394 38.4099)" class="st4" width="659.2" height="187"/>
<g>
	
		<rect x="92.2" y="121.4" transform="matrix(0.9957 -9.265941e-02 9.265941e-02 0.9957 -16.6394 38.4098)" class="st5" width="626.2" height="154"/>
	
		<rect x="93.2" y="122.4" transform="matrix(0.9957 -9.265941e-02 9.265941e-02 0.9957 -16.6394 38.4098)" class="st6" width="624.2" height="152"/>
	<path d="M203.9,261.3l-16.4,1.5l-7-75l-12.8,1.2l-1.3-14l41.9-3.9l1.3,14l-12.8,1.2L203.9,261.3z M220.1,248.6l-6.2-66.8
		c-0.6-6.6,3-11.5,10.9-12.2l17.8-1.7c7.9-0.7,12.5,3.5,13.1,10.1l6.2,66.7c0.6,6.7-4,11.6-10.9,12.2l-18.2,1.7
		C226.2,259.3,220.8,255.3,220.1,248.6z M238.4,244l5-0.5c1.6-0.1,1.9-1.3,1.9-2.1l-5.3-57.4c-0.1-0.8-0.6-1.7-2.2-1.6l-4.8,0.4
		c-1.7,0.2-2.4,1.2-2.3,2l5.3,57.4C236.1,243.5,237.4,244.1,238.4,244z M285.1,253.8l-14.2,1.3l-8.3-89l16.1-1.5l3.6,39l0.5,0
		l8.2-40.1l15.7-1.5l-11.1,49.5l20.3,39.4l-17.2,1.6l-9.7-20.2L285.1,253.8z M319.9,250.5l-8.3-89l35.8-3.3l1.3,14l-19.6,1.8
		l2.7,29.4l18.4-1.7l1.3,14l-18.4,1.7l1.6,17.7l19.6-1.8l1.3,14L319.9,250.5z M377.1,245.2l-16.1,1.5l-8.3-89l15.7-1.5l14.1,35.1
		l0.6-0.1l-3.4-36.1l16.4-1.5l8.3,89l-15.5,1.4l-15-40.8l-0.6,0.1L377.1,245.2z M411.2,230.8l-6.2-66.8c-0.6-6.6,3-11.5,10.9-12.2
		l17.8-1.7c7.9-0.7,12.5,3.5,13.1,10.1l6.2,66.7c0.6,6.7-4,11.6-10.9,12.2l-18.2,1.7C417.2,241.5,411.8,237.5,411.2,230.8z
		 M429.4,226.2l5-0.5c1.6-0.1,1.9-1.3,1.9-2.1l-5.3-57.4c-0.1-0.8-0.6-1.7-2.2-1.6l-4.8,0.4c-1.7,0.2-2.4,1.2-2.3,2l5.3,57.4
		C427.1,225.7,428.4,226.3,429.4,226.2z M477.9,235.8l-16,1.5l-8.3-89l16.1-1.5l13.5,22.5l0.6-0.1l9-24.6l16.4-1.5l8.3,89l-16.1,1.5
		l-5.1-55l-0.6,0.1l-8.5,20.3l-1.9,0.2l-12.1-18.4l-0.5,0L477.9,235.8z M542.7,229.8l-16.5,1.5l-8.3-89l16.5-1.5L542.7,229.8z
		 M568.5,213.3l5-0.5c1.4-0.1,1.9-1.3,1.9-2.1l-1.7-18.5l16-1.5l2.2,23.3c0.6,6.7-3.7,11.6-10.7,12.2l-18.2,1.7
		c-6.7,0.6-12.1-3.3-12.7-10l-6.2-66.8c-0.6-6.6,3-11.5,10.9-12.2l17.8-1.7c7.9-0.7,12.3,3.6,12.9,10.1l2.5,27.2l-16,1.5l-2.1-22.7
		c-0.1-0.8-0.8-1.7-2.2-1.6l-4.8,0.4c-1.8,0.2-2.4,1.2-2.3,2l5.3,57.4C566.2,212.8,567.5,213.4,568.5,213.3z M616.4,208.8l5.4-0.5
		c1.3-0.1,1.8-1.3,1.8-1.7l-0.3-3.1c-0.5-5.1-1.3-6-6-10.4l-15.5-14.2c-4.9-4.4-7.1-6.7-7.7-12.9l-1.8-19.7
		c-0.6-6.6,2.9-11.1,10.9-11.9l17.1-1.6c7.9-0.7,12.5,3.5,13.1,10.1l2.1,22.2l-16.1,1.5l-1.6-17.7c-0.1-0.8-0.8-1.7-2.3-1.6
		l-4.3,0.4c-1.6,0.1-2.2,1.2-2.1,1.6l1.1,11.6c0.4,3.8,1.7,5.3,3.5,6.8l18,14.2c5.1,4.1,6.8,7.9,7.4,14.7l1.2,13.1
		c0.6,6.8-3.8,11.2-10.7,11.8l-18.2,1.7c-7.1,0.7-12.2-3.3-12.9-10l-1.7-17.8l16.2-1.5l1.2,13C614.2,208.3,615.7,208.9,616.4,208.8z
		"/>
</g>
<g>
	<path class="st7" d="M154.6,146.3c-0.1-1.3-1.2-2.4-2.5-2.5l-44.5-6.1c-1.8-0.3-3.5,1.2-3.5,3c-0.1,3.8-0.3,10.8-1.1,20.5
		c-0.9,10.3-3.6,19.3-5.3,24.2c-0.7,1.9,0.6,4.1,2.7,4.2l49,4.1c1.5,0.1,2.8-0.9,3.1-2.3c0.8-4.1,2.2-12.7,2.6-23
		C155.6,158.1,155,150,154.6,146.3z"/>
	<path class="st6" d="M153.6,146.4c-0.1-0.9-0.8-1.5-1.6-1.7l-44.5-6.1c-1.2-0.2-2.3,0.8-2.4,2.1c-0.1,3.9-0.3,10.8-1.1,20.5
		c-0.9,10.4-3.6,19.5-5.3,24.4c-0.5,1.4,0.5,2.8,1.8,2.9l49,4.1c1,0.1,1.9-0.6,2.1-1.5c0.8-4.1,2.1-12.6,2.6-22.8
		C154.6,158.1,154,150.1,153.6,146.4z"/>
</g>
<path class="st8" d="M126.5,147.6l1.8-18.1c2.5-0.4,7.6-1,7.5,0.3c-0.1,1.3-1.6,13.4-2.3,19.4L126.5,147.6z"/>
<path class="st9" d="M111.1,156.6l38,3.5 M122.6,162.1l18.5,2 M107.1,178.1l26.5,2.5 M115.1,165.6l33,3 M134.1,187.6l12.5,1"/>
<g>
	<path class="st7" d="M150.5,283.4c0.1-1.4,1.3-2.5,2.8-2.6l43.5-1.5c2.5-0.1,4.7,3.2,4.3,5.7c-0.6,3.2-1,7.9-0.4,14.5
		c0.9,10.3,2.3,18.3,3.2,22.6c0.4,1.8-0.9,3.6-2.7,3.7l-45.3,4.6c-1.5,0.2-2.9-0.8-3.2-2.3c-0.8-4.1-2.1-12.7-2.6-22.9
		C149.5,295.1,150.1,287.2,150.5,283.4z"/>
	<path class="st6" d="M151.5,283.5c0.1-0.9,0.9-1.6,1.8-1.7l43.5-1.5c0.8,0,1.7,0.5,2.4,1.5c0.7,1,1,2.2,0.8,3.1
		c-0.6,3.3-1,8.1-0.4,14.8c0.9,10.3,2.4,18.4,3.3,22.7c0.3,1.2-0.6,2.4-1.8,2.5l-45.3,4.6c-1,0.1-1.9-0.6-2.1-1.5
		c-0.8-4.1-2.1-12.6-2.6-22.8C150.5,295.1,151.1,287.3,151.5,283.5z"/>
</g>
<path class="st10" d="M178.6,284.4l-1.8-18.1c-2.5-0.4-7.6-1-7.5,0.3c0.1,1.3,1.6,13.4,2.3,19.4L178.6,284.4z"/>
<path class="st9" d="M159.5,291.2l33.5-1 M171.5,293.7H193 M159.5,304.2l33.5-1.5 M159.5,313.2l35.5-2.5 M185,316.7c0.8,0,7,0,10,0
	 M186,320.2h10.5"/>
<g>
	<path class="st7" d="M666.7,107c-0.5-1.3,0.1-2.8,1.4-3.5L716.8,77c1.5-0.8,3.5-0.2,4.2,1.4c1.7,3.4,5,9.6,10,18.2
		c5.1,8.7,11.3,15.6,15,19.3c1.5,1.5,1.1,4.2-0.8,5.1l-53.5,26.5c-1.3,0.6-2.8,0.3-3.6-0.9c-2.4-3.3-7.5-10.5-12.4-19.7
		C670.9,118,668,110.6,666.7,107z"/>
	<path class="st6" d="M667.7,106.7c-0.3-0.9,0.1-1.8,0.9-2.3l48.8-26.5c1-0.6,2.3-0.1,2.9,0.9c1.7,3.4,5,9.7,10.1,18.3
		c5.2,8.8,11.4,15.7,15.2,19.5c1.1,1.1,0.8,2.9-0.5,3.5l-53.5,26.5c-0.9,0.4-1.9,0.2-2.4-0.6c-2.4-3.3-7.4-10.4-12.4-19.6
		C671.8,117.6,668.9,110.2,667.7,106.7z"/>
</g>
<path class="st10" d="M696.1,93.9l-10.6-14.7c1.6-2,5-5.8,5.8-4.7c0.8,1.1,7.7,11.1,11.1,16L696.1,93.9z"/>
<path class="st9" d="M675.6,110.6l16-8 M681.1,110.6l10-4.5 M687.6,127.6l8-3 M724.1,110.6l7-3.5 M706.6,132.6l25.5-13.5"/>
<defs>
	<filter id="Adobe_OpacityMaskFilter" filterUnits="userSpaceOnUse" x="693.6" y="97.6" width="29" height="29">
		<feColorMatrix  type="matrix" values="1 0 0 0 0  0 1 0 0 0  0 0 1 0 0  0 0 0 1 0"/>
	</filter>
</defs>
<mask maskUnits="userSpaceOnUse" x="693.6" y="97.6" width="29" height="29" id="path-21-inside-1_643_14738_00000147901566423464320300000017665893119356863891_">
	<path class="st11" d="M721.1,112.1c0,3.2-1.2,6.3-3.4,8.7c-2.2,2.4-5.2,3.9-8.4,4.2c-3.2,0.3-6.4-0.6-9-2.5c-2.6-1.9-4.4-4.8-5-7.9
		s0-6.5,1.6-9.2c1.7-2.8,4.3-4.8,7.4-5.7c3.1-0.9,6.4-0.7,9.3,0.7c2.9,1.4,5.2,3.8,6.4,6.8l-12,4.9H721.1z"/>
</mask>
<path class="st12" d="M721.1,112.1c0,3.2-1.2,6.3-3.4,8.7c-2.2,2.4-5.2,3.9-8.4,4.2c-3.2,0.3-6.4-0.6-9-2.5c-2.6-1.9-4.4-4.8-5-7.9
	s0-6.5,1.6-9.2c1.7-2.8,4.3-4.8,7.4-5.7c3.1-0.9,6.4-0.7,9.3,0.7c2.9,1.4,5.2,3.8,6.4,6.8l-12,4.9H721.1z"/>
<circle class="st13" cx="708.1" cy="112.1" r="12.2"/>
<defs>
	
		<filter id="Adobe_OpacityMaskFilter_00000092434202169982026560000005966265093615639739_" filterUnits="userSpaceOnUse" x="693.6" y="97.6" width="29" height="29">
		<feColorMatrix  type="matrix" values="1 0 0 0 0  0 1 0 0 0  0 0 1 0 0  0 0 0 1 0"/>
	</filter>
</defs>
<mask maskUnits="userSpaceOnUse" x="693.6" y="97.6" width="29" height="29" id="path-23-inside-2_643_14738_00000005245008100264535720000002184667787441581485_">
	<path style="fill:#FFFFFF;filter:url(#Adobe_OpacityMaskFilter_00000092434202169982026560000005966265093615639739_);" d="
		M721.1,112.1c0,2.6-0.8,5.1-2.2,7.2c-1.4,2.1-3.5,3.8-5.8,4.8c-2.4,1-5,1.2-7.5,0.7c-2.5-0.5-4.8-1.7-6.7-3.6s-3.1-4.1-3.6-6.7
		c-0.5-2.5-0.2-5.1,0.7-7.5c1-2.4,2.7-4.4,4.8-5.8c2.1-1.4,4.7-2.2,7.2-2.2v13H721.1z"/>
</mask>
<path class="st15" d="M721.1,112.1c0,2.6-0.8,5.1-2.2,7.2c-1.4,2.1-3.5,3.8-5.8,4.8c-2.4,1-5,1.2-7.5,0.7c-2.5-0.5-4.8-1.7-6.7-3.6
	s-3.1-4.1-3.6-6.7c-0.5-2.5-0.2-5.1,0.7-7.5c1-2.4,2.7-4.4,4.8-5.8c2.1-1.4,4.7-2.2,7.2-2.2v13H721.1z"/>
<g>
	<path class="st7" d="M380.7,31c-0.1-1.7,1.2-3.1,2.9-3.2l54.8-1.3c1.7,0,3.2,1.4,3.1,3.1c0,3.8,0,10.8,0.6,20.8
		c0.6,10.2,3,19.2,4.6,24.2c0.6,2-0.8,4.1-2.9,4.2l-60,1.9c-1.8,0.1-3.3-1.5-3.1-3.3c0.4-4.7,1-13.7,0.7-23.6
		C381.4,43.9,381,35.4,380.7,31z"/>
	<path class="st6" d="M381.7,31c-0.1-1.1,0.8-2.1,2-2.1l54.8-1.3c1.2,0,2.1,0.9,2.1,2.1c0,3.8,0,10.9,0.6,20.9
		c0.6,10.3,3.1,19.4,4.7,24.4c0.4,1.4-0.6,2.8-2,2.9l-60,1.9c-1.2,0-2.2-1-2.1-2.2c0.4-4.7,1-13.7,0.7-23.7
		C382.4,43.9,382,35.3,381.7,31z"/>
</g>
<path class="st0" d="M405.6,33.3l-1.5-12.3c4.6,0.5,13.9,1.8,14.1,2.6c0.1,0.8,0.5,7,0.9,10.6L405.6,33.3z"/>
<path class="st16" d="M386.5,37.6l17.9,0.2 M391.4,40.1l11,0.6 M415.1,62.3h17 M429.6,59.7l7.8,0.1 M404,71.3l28.9-0.4"/>
<path class="st16" d="M389.6,58.8v-16l32,16H389.6z"/>
<g>
	<path class="st7" d="M419.7,64c-0.5-1.6,0.5-3.4,2.1-3.8l31.8-8.6c1.7-0.5,3.4,0.6,3.8,2.3c0.6,2.5,1.7,6.5,3.3,11.7
		c1.7,5.4,4.1,10,5.8,13c1,1.8,0.2,4.2-1.8,4.8L430.2,93c-1.8,0.5-3.6-0.7-3.9-2.5c-0.5-3.2-1.5-8.2-3-13.6
		C421.9,71.6,420.5,66.9,419.7,64z"/>
	<path class="st6" d="M420.6,63.7c-0.3-1.1,0.3-2.2,1.4-2.5l31.8-8.6c1.1-0.3,2.3,0.4,2.6,1.6c0.6,2.5,1.7,6.5,3.3,11.8
		c1.7,5.5,4.1,10.2,5.9,13.2c0.7,1.3,0.1,2.9-1.2,3.3l-34.4,9.6c-1.2,0.3-2.4-0.5-2.6-1.7c-0.5-3.2-1.5-8.3-3-13.7
		C422.9,71.3,421.5,66.6,420.6,63.7z"/>
</g>
<path class="st17" d="M435.2,60.5l-2.8-7.4c3-0.4,9-1,9.2-0.5c0.2,0.5,1.4,4.3,2.2,6.5L435.2,60.5z"/>
<path class="st16" d="M431.4,70.3l11.2-2.6 M434.9,71.1l6.9-1.3 M442.1,76.1l10.6-2.6 M450.7,72.2l4.9-1.2 M436.5,83.4l17.9-4.7"/>
</svg>
