<?xml version="1.0" encoding="utf-8"?>
<!-- Generator: Adobe Illustrator 28.0.0, SVG Export Plug-In . SVG Version: 6.00 Build 0)  -->
<svg version="1.1" id="Layer_1" xmlns="http://www.w3.org/2000/svg" xmlns:xlink="http://www.w3.org/1999/xlink" x="0px" y="0px"
	 viewBox="0 0 210.8 209.3" style="enable-background:new 0 0 210.8 209.3;" xml:space="preserve">
<style type="text/css">
	.st0{opacity:0.17;}
	.st1{fill:none;stroke:#000000;stroke-width:2;}
	.st2{fill:#4AF2F8;}
	.st3{fill:#92FF60;stroke:#000000;stroke-width:2;}
</style>
<g>
	<g class="st0">
		<path d="M186.4,36.8L42.6,40.2c-1.5,0-2.8,1.2-2.9,2.8C33.2,114.6,23.4,159,16.5,175.8c-0.8,2.1,0.5,4.5,2.8,4.6l162.8,8.6
			c1.6,0.1,3-1.1,3.1-2.6c4.7-44.8,4.8-114.2,4.3-146.7C189.5,38.1,188.1,36.8,186.4,36.8z"/>
		<path class="st1" d="M186.4,36.8L42.6,40.2c-1.5,0-2.8,1.2-2.9,2.8C33.2,114.6,23.4,159,16.5,175.8c-0.8,2.1,0.5,4.5,2.8,4.6
			l162.8,8.6c1.6,0.1,3-1.1,3.1-2.6c4.7-44.8,4.8-114.2,4.3-146.7C189.5,38.1,188.1,36.8,186.4,36.8z"/>
	</g>
	<g>
		<g>
			<path class="st2" d="M182.4,28.8L38.6,32.2c-1.5,0-2.8,1.2-2.9,2.8C29.2,106.6,19.4,151,12.5,167.8c-0.8,2.1,0.5,4.5,2.8,4.6
				l162.8,8.6c1.6,0.1,3-1.1,3.1-2.6c4.7-44.8,4.8-114.2,4.3-146.7C185.5,30.1,184.1,28.8,182.4,28.8z"/>
			<path class="st1" d="M182.4,28.8L38.6,32.2c-1.5,0-2.8,1.2-2.9,2.8C29.2,106.6,19.4,151,12.5,167.8c-0.8,2.1,0.5,4.5,2.8,4.6
				l162.8,8.6c1.6,0.1,3-1.1,3.1-2.6c4.7-44.8,4.8-114.2,4.3-146.7C185.5,30.1,184.1,28.8,182.4,28.8z"/>
		</g>
	</g>
</g>
<path class="st3" d="M88.3,36.2l1.9-18.8c0.2-1.5,1.4-2.7,3-2.7H132c1.8,0,3.2,1.6,3,3.4l-2.2,16.6c-0.2,1.4-1.4,2.5-2.8,2.6
	l-38.5,2.2C89.6,39.6,88.1,38.1,88.3,36.2z"/>
</svg>
