<svg width="97" height="34" viewBox="0 0 97 34" fill="none" xmlns="http://www.w3.org/2000/svg">
<g id="ABM">
<g id="Vector" filter="url(#filter0_di_643_18038)">
<path d="M71.7073 31.5281H62.3691V2.52808H71.777L78.5715 13.3649L85.2963 2.52808H94.8435V31.5281H85.4357V13.622H85.0873L78.5367 24.7703L71.986 13.622H71.7073V31.5281Z" fill="url(#paint0_linear_643_18038)" fill-opacity="0.65" shape-rendering="crispEdges"/>
<path d="M71.7073 32.0281H72.2073V31.5281V14.9855L78.1056 25.0236L78.5367 25.7572L78.9677 25.0236L84.9357 14.8669V31.5281V32.0281H85.4357H94.8435H95.3435V31.5281V2.52808V2.02808H94.8435H85.2963H85.0182L84.8715 2.26444L78.5693 12.4202L72.2006 2.26247L72.0536 2.02808H71.777H62.3691H61.8691V2.52808V31.5281V32.0281H62.3691H71.7073Z" stroke="black" shape-rendering="crispEdges"/>
</g>
<g id="Vector_2" filter="url(#filter1_di_643_18038)">
<path d="M50.6588 31.5281H33.5156V2.52808H50.6588C55.3975 2.52808 57.7669 4.08512 57.7669 6.18714V15.4516C57.7669 16.8529 57.0003 18.1764 53.6553 18.6824V18.8381C56.5125 19.3442 57.7669 20.473 57.7669 22.1469V27.9079C57.7669 30.01 55.0491 31.5281 50.6588 31.5281ZM42.9234 16.6972H47.2441C48.0803 16.6972 48.4288 16.3079 48.4288 16.0355V7.70526C48.4288 7.43278 48.2894 7.08244 47.2441 7.08244H42.9234V16.6972ZM48.4288 25.9616V21.7965C48.4288 21.5241 48.0803 21.2126 47.1047 21.2126H42.9234V26.9737H46.8259C48.2894 26.9737 48.4288 26.4677 48.4288 25.9616Z" fill="url(#paint1_linear_643_18038)" fill-opacity="0.65" shape-rendering="crispEdges"/>
<path d="M33.0156 31.5281V32.0281H33.5156H50.6588C52.9028 32.0281 54.7674 31.6414 56.0909 30.9493C57.4161 30.2563 58.2669 29.211 58.2669 27.9079V22.1469C58.2669 21.1645 57.8896 20.3212 57.1012 19.6693C56.6678 19.3108 56.1193 19.0175 55.4586 18.7832C56.2609 18.5214 56.8653 18.1803 57.3067 17.7682C58.0424 17.0814 58.2669 16.2531 58.2669 15.4516V6.18714C58.2669 4.91186 57.5348 3.84894 56.2309 3.13131C54.9438 2.42289 53.0722 2.02808 50.6588 2.02808H33.5156H33.0156V2.52808V31.5281ZM47.2441 16.1972H43.4234V7.58244H47.2441C47.7155 7.58244 47.8852 7.66255 47.9284 7.69181C47.9286 7.69539 47.9288 7.69984 47.9288 7.70526V16.0019C47.9204 16.0129 47.9026 16.0319 47.8673 16.0561C47.7782 16.1172 47.5876 16.1972 47.2441 16.1972ZM47.9353 15.9915C47.9354 15.9915 47.9351 15.9922 47.9344 15.9935C47.9349 15.9921 47.9353 15.9915 47.9353 15.9915ZM47.8966 21.8432C47.9101 21.8505 47.9207 21.8568 47.9288 21.8621V25.9616C47.9288 26.1813 47.894 26.2401 47.8477 26.2805C47.7715 26.3469 47.5272 26.4737 46.8259 26.4737H43.4234V21.7126H47.1047C47.549 21.7126 47.788 21.7851 47.8966 21.8432ZM47.9501 21.8782C47.9519 21.8799 47.9526 21.8808 47.9525 21.8809C47.9524 21.8809 47.9515 21.88 47.9501 21.8782Z" stroke="black" shape-rendering="crispEdges"/>
</g>
<g id="Vector_3" filter="url(#filter2_di_643_18038)">
<path d="M12.9484 31.5281H2.84375L10.9972 2.52808H22.9834L30.9975 31.5281H20.8928L20.0566 27.2073H13.6453L12.9484 31.5281ZM19.3597 22.4583L16.9903 10.7804H16.6419L14.3422 22.4583H19.3597Z" fill="url(#paint2_linear_643_18038)" fill-opacity="0.65" shape-rendering="crispEdges"/>
<path d="M12.9484 32.0281H13.3743L13.4421 31.6077L14.0711 27.7073H19.6441L20.4019 31.6231L20.4803 32.0281H20.8928H30.9975H31.6544L31.4795 31.3949L23.4654 2.39489L23.364 2.02808H22.9834H10.9972H10.6184L10.5159 2.39275L2.36241 31.3927L2.18379 32.0281H2.84375H12.9484ZM14.9503 21.9583L16.8208 12.4596L18.7481 21.9583H14.9503Z" stroke="black" shape-rendering="crispEdges"/>
</g>
</g>
<defs>
<filter id="filter0_di_643_18038" x="60.3691" y="0.528076" width="36.4746" height="33" filterUnits="userSpaceOnUse" color-interpolation-filters="sRGB">
<feFlood flood-opacity="0" result="BackgroundImageFix"/>
<feColorMatrix in="SourceAlpha" type="matrix" values="0 0 0 0 0 0 0 0 0 0 0 0 0 0 0 0 0 0 127 0" result="hardAlpha"/>
<feOffset/>
<feGaussianBlur stdDeviation="0.5"/>
<feComposite in2="hardAlpha" operator="out"/>
<feColorMatrix type="matrix" values="0 0 0 0 0 0 0 0 0 0 0 0 0 0 0 0 0 0 0.24 0"/>
<feBlend mode="normal" in2="BackgroundImageFix" result="effect1_dropShadow_643_18038"/>
<feBlend mode="normal" in="SourceGraphic" in2="effect1_dropShadow_643_18038" result="shape"/>
<feColorMatrix in="SourceAlpha" type="matrix" values="0 0 0 0 0 0 0 0 0 0 0 0 0 0 0 0 0 0 127 0" result="hardAlpha"/>
<feOffset dy="1"/>
<feGaussianBlur stdDeviation="2"/>
<feComposite in2="hardAlpha" operator="arithmetic" k2="-1" k3="1"/>
<feColorMatrix type="matrix" values="0 0 0 0 0 0 0 0 0 0 0 0 0 0 0 0 0 0 0.34 0"/>
<feBlend mode="normal" in2="shape" result="effect2_innerShadow_643_18038"/>
</filter>
<filter id="filter1_di_643_18038" x="31.5156" y="0.528076" width="28.252" height="33" filterUnits="userSpaceOnUse" color-interpolation-filters="sRGB">
<feFlood flood-opacity="0" result="BackgroundImageFix"/>
<feColorMatrix in="SourceAlpha" type="matrix" values="0 0 0 0 0 0 0 0 0 0 0 0 0 0 0 0 0 0 127 0" result="hardAlpha"/>
<feOffset/>
<feGaussianBlur stdDeviation="0.5"/>
<feComposite in2="hardAlpha" operator="out"/>
<feColorMatrix type="matrix" values="0 0 0 0 0 0 0 0 0 0 0 0 0 0 0 0 0 0 0.24 0"/>
<feBlend mode="normal" in2="BackgroundImageFix" result="effect1_dropShadow_643_18038"/>
<feBlend mode="normal" in="SourceGraphic" in2="effect1_dropShadow_643_18038" result="shape"/>
<feColorMatrix in="SourceAlpha" type="matrix" values="0 0 0 0 0 0 0 0 0 0 0 0 0 0 0 0 0 0 127 0" result="hardAlpha"/>
<feOffset dy="1"/>
<feGaussianBlur stdDeviation="2"/>
<feComposite in2="hardAlpha" operator="arithmetic" k2="-1" k3="1"/>
<feColorMatrix type="matrix" values="0 0 0 0 0 0 0 0 0 0 0 0 0 0 0 0 0 0 0.34 0"/>
<feBlend mode="normal" in2="shape" result="effect2_innerShadow_643_18038"/>
</filter>
<filter id="filter2_di_643_18038" x="0.523438" y="0.528076" width="32.7871" height="33" filterUnits="userSpaceOnUse" color-interpolation-filters="sRGB">
<feFlood flood-opacity="0" result="BackgroundImageFix"/>
<feColorMatrix in="SourceAlpha" type="matrix" values="0 0 0 0 0 0 0 0 0 0 0 0 0 0 0 0 0 0 127 0" result="hardAlpha"/>
<feOffset/>
<feGaussianBlur stdDeviation="0.5"/>
<feComposite in2="hardAlpha" operator="out"/>
<feColorMatrix type="matrix" values="0 0 0 0 0 0 0 0 0 0 0 0 0 0 0 0 0 0 0.24 0"/>
<feBlend mode="normal" in2="BackgroundImageFix" result="effect1_dropShadow_643_18038"/>
<feBlend mode="normal" in="SourceGraphic" in2="effect1_dropShadow_643_18038" result="shape"/>
<feColorMatrix in="SourceAlpha" type="matrix" values="0 0 0 0 0 0 0 0 0 0 0 0 0 0 0 0 0 0 127 0" result="hardAlpha"/>
<feOffset dy="1"/>
<feGaussianBlur stdDeviation="2"/>
<feComposite in2="hardAlpha" operator="arithmetic" k2="-1" k3="1"/>
<feColorMatrix type="matrix" values="0 0 0 0 0 0 0 0 0 0 0 0 0 0 0 0 0 0 0.34 0"/>
<feBlend mode="normal" in2="shape" result="effect2_innerShadow_643_18038"/>
</filter>
<linearGradient id="paint0_linear_643_18038" x1="78.6063" y1="10.0281" x2="78.6063" y2="34.5281" gradientUnits="userSpaceOnUse">
<stop stop-color="#B6CAD1"/>
<stop offset="1" stop-color="#6993C6"/>
</linearGradient>
<linearGradient id="paint1_linear_643_18038" x1="45.6413" y1="10.0281" x2="45.6413" y2="34.5281" gradientUnits="userSpaceOnUse">
<stop stop-color="#B6CAD1"/>
<stop offset="1" stop-color="#6993C6"/>
</linearGradient>
<linearGradient id="paint2_linear_643_18038" x1="16.9206" y1="10.0281" x2="16.9206" y2="34.5281" gradientUnits="userSpaceOnUse">
<stop stop-color="#B6CAD1"/>
<stop offset="1" stop-color="#6993C6"/>
</linearGradient>
</defs>
</svg>
