<svg width="25" height="25" viewBox="0 0 25 25" fill="none" xmlns="http://www.w3.org/2000/svg">
<g id="mingcute:telegram-fill">
<g id="Group">
<path id="Vector" fill-rule="evenodd" clip-rule="evenodd" d="M20.2767 5.24344C20.5238 5.13943 20.7943 5.10356 21.0599 5.13956C21.3256 5.17556 21.5768 5.28211 21.7873 5.44813C21.9979 5.61414 22.1601 5.83356 22.257 6.08352C22.354 6.33349 22.3822 6.60488 22.3387 6.86944L20.0707 20.6264C19.8507 21.9534 18.3947 22.7144 17.1777 22.0534C16.1597 21.5004 14.6477 20.6484 13.2877 19.7594C12.6077 19.3144 10.5247 17.8894 10.7807 16.8754C11.0007 16.0084 14.5007 12.7504 16.5007 10.8134C17.2857 10.0524 16.9277 9.61344 16.0007 10.3134C13.6987 12.0514 10.0027 14.6944 8.78065 15.4384C7.70265 16.0944 7.14065 16.2064 6.46865 16.0944C5.24265 15.8904 4.10565 15.5744 3.17765 15.1894C1.92365 14.6694 1.98465 12.9454 3.17665 12.4434L20.2767 5.24344Z" fill="white"/>
</g>
</g>
</svg>
