<?xml version="1.0" encoding="utf-8"?>
<!-- Generator: Adobe Illustrator 28.0.0, SVG Export Plug-In . SVG Version: 6.00 Build 0)  -->
<svg version="1.1" id="Layer_1" xmlns="http://www.w3.org/2000/svg" xmlns:xlink="http://www.w3.org/1999/xlink" x="0px" y="0px"
	 viewBox="0 0 192.3 168.1" style="enable-background:new 0 0 192.3 168.1;" xml:space="preserve">
<style type="text/css">
	.st0{opacity:0.17;}
	.st1{fill:#FFDC1A;}
	.st2{fill:none;stroke:#000000;stroke-width:2;}
	.st3{fill:#81F7FB;stroke:#000000;stroke-width:2;}
</style>
<g>
	<g>
		<g class="st0">
			<path d="M145.7,34.8L18.2,37.2c-1.6,0-2.8,1.2-2.9,2.8c-2.9,49.7,7.6,97.5,13.2,118.8c0.4,1.4,1.7,2.3,3.2,2.2l131.1-13.6
				c1.9-0.2,3.2-2.2,2.7-4c-6-21-13.3-76.8-16.7-105.9C148.6,35.9,147.2,34.7,145.7,34.8z"/>
		</g>
		<g>
			<path class="st1" d="M150.7,26.8L23.2,29.2c-1.6,0-2.8,1.2-2.9,2.8c-2.9,49.7,7.6,97.5,13.2,118.8c0.4,1.4,1.7,2.3,3.2,2.2
				l131.1-13.6c1.9-0.2,3.2-2.2,2.7-4c-6-21-13.3-76.8-16.7-105.9C153.6,27.9,152.2,26.7,150.7,26.8z"/>
		</g>
	</g>
	<path class="st2" d="M150.7,26.8L23.2,29.2c-1.6,0-2.8,1.2-2.9,2.8c-2.9,49.7,7.6,97.5,13.2,118.8c0.4,1.4,1.7,2.3,3.2,2.2
		l131.1-13.6c1.9-0.2,3.2-2.2,2.7-4c-6-21-13.3-76.8-16.7-105.9C153.6,27.9,152.2,26.7,150.7,26.8z"/>
</g>
<path class="st3" d="M102.5,29.6l-1.1-18c-0.1-1.7-1.7-3-3.4-2.8l-20.7,2.7c-1.5,0.2-2.6,1.5-2.6,3v17.7c0,1.9,1.8,3.3,3.6,3
	c3.6-0.7,8.9-1.6,12.4-1.8c3.2-0.1,6.8-0.5,9.2-0.7C101.4,32.6,102.6,31.2,102.5,29.6z"/>
</svg>
