<?xml version="1.0" encoding="utf-8"?>
<!-- Generator: Adobe Illustrator 28.0.0, SVG Export Plug-In . SVG Version: 6.00 Build 0)  -->
<svg version="1.1" id="Layer_1" xmlns="http://www.w3.org/2000/svg" xmlns:xlink="http://www.w3.org/1999/xlink" x="0px" y="0px"
	 viewBox="0 0 562.8 306.9" style="enable-background:new 0 0 562.8 306.9;" xml:space="preserve">
<style type="text/css">
	.st0{fill:none;stroke:#000000;stroke-width:2;stroke-linecap:round;stroke-linejoin:round;}
	.st1{fill:none;stroke:#000000;stroke-width:2;stroke-dasharray:9,9;}
	.st2{fill:none;stroke:#000000;stroke-width:4;stroke-linecap:round;stroke-linejoin:round;}
	
		.st3{fill-rule:evenodd;clip-rule:evenodd;fill:#F23833;stroke:#000000;stroke-width:2;stroke-linecap:square;stroke-linejoin:round;}
	.st4{fill:#FFFFFF;}
	.st5{fill:none;stroke:#000000;stroke-width:2;}
	.st6{fill:#F23833;stroke:#000000;stroke-width:2;stroke-linejoin:round;}
	.st7{fill:none;stroke:#000000;stroke-linecap:round;stroke-linejoin:round;}
	.st8{fill:none;stroke:#000000;}
</style>
<path class="st0" d="M325,177V58.8L543.1,177H325z"/>
<path class="st0" d="M325,177l76.8-76.8v20.7 M462.7,133.1v28 M462.7,177v-15.8 M401.8,120.9l18.3-12.2 M401.8,120.9v12.2
	 M401.8,133.1l28-17.1 M401.8,133.1v12.2 M401.8,145.3l42.7-21.9 M401.8,145.3v15.8 M401.8,161.2V177l58.5-31.7 M401.8,161.2
	l52.4-30.5 M432.2,177l30.5-15.8"/>
<path class="st0" d="M325,158.7c9.8,0,21-1.5,21.9,17.1"/>
<circle class="st1" cx="140.5" cy="145.3" r="82.2"/>
<path class="st2" d="M56,20.3v243.2 M41.5,229.1h373.6"/>
<path class="st3" d="M25.2,107.6l6.5,0.8c5.9,0.7,11.1,2.6,15.7,5.5l5.4,3.4l-7.4,9.9l-5.4-3.4c-2.8-1.8-6-3-9.9-3.5l-6.5-0.8
	L25.2,107.6z M235.6,128.5c-3-1-6.6-1.6-10.7-1.7c-4.4-0.1-8,0.5-11.1,1.6l-6.1,2.2l-4.7-11.3l6.1-2.2c4.8-1.7,10.2-2.5,16-2.4
	c5.4,0.1,10.4,0.9,14.9,2.4l6.1,2.1l-4.4,11.3L235.6,128.5z M401.9,132.7c-2.9-0.1-5.2,0.7-7.3,2.3l-5.1,3.8l-8.2-9.4l5.1-3.8
	c4.4-3.3,9.8-5.1,15.9-4.9l6.5,0.2l-0.4,12.1L401.9,132.7z M259.2,130.2l3.3,5.2c4.5,7,7.6,15.4,9.9,24.1l1.5,5.9l-12.7,2.8
	l-1.5-5.9c-2.2-8.2-4.9-15.2-8.4-20.9l-3.3-5.2L259.2,130.2z M201,137.7l-3,5.4c-3.4,6.2-6,13.9-8.2,22.7l-1.4,5.9l-12.7-2.7
	l1.4-5.9c2.2-9.3,5.1-18.1,9.3-25.6l3-5.4L201,137.7z M63,131.7l2.3,5.7c3.2,7.7,5.4,16.6,7.2,25.8l1.2,5.9l-12.8,2.1l-1.2-5.9
	c-1.8-8.9-3.9-16.9-6.6-23.7l-2.3-5.7L63,131.7z M386.4,146.2l-2,5.7c-2.2,6.3-4.1,13.7-5.8,21.8l-1.3,5.9l-12.8-2.4l1.3-5.9
	c1.8-8.3,3.7-16.2,6.2-23.2l2-5.7L386.4,146.2z M276.2,177.9l0.9,6c0.9,5.7,1.6,11.6,2.4,17.4c0.3,2.2,0.6,4.4,0.9,6.6l0.8,6
	l-12.9,1.4l-0.8-6c-0.3-2.3-0.6-4.5-0.9-6.8c-0.7-5.7-1.5-11.4-2.3-17.1l-0.9-6L276.2,177.9z M375.3,190.5l-1.1,5.9
	c-1.5,7.6-3,15.4-4.8,23l-1.4,5.9l-12.7-2.6l1.4-5.9c1.7-7.3,3.2-14.9,4.7-22.5l1.1-5.9L375.3,190.5z M186.1,184.5l-0.9,6
	c-0.5,3.1-0.9,6.2-1.4,9.3c-0.8,5.4-1.6,10.8-2.5,16.1l-1,6l-12.9-1.9l1-6c0.9-5.2,1.6-10.4,2.4-15.7c0.5-3.2,0.9-6.3,1.4-9.5l0.9-6
	L186.1,184.5z M75.9,182.7l0.9,6c0.1,1,0.3,1.9,0.4,2.9c1.1,7.5,2.2,14.9,3.5,22.2l1,6l-12.9,1.9l-1-6c-1.3-7.4-2.4-15.1-3.5-22.5
	c-0.1-1-0.3-1.9-0.4-2.9l-0.9-6L75.9,182.7z M282.8,225.5l1.2,5.9c1.7,8.4,3.8,15.8,6.6,21.9l2.6,5.6l-12,4.7l-2.6-5.6
	c-3.4-7.3-5.7-15.7-7.5-24.5l-1.2-5.9L282.8,225.5z M364.7,236.8l-2.1,5.7c-3.1,8.2-6.8,15.9-11.8,22.3l-3.8,4.9l-10.6-7l3.8-4.9
	c3.9-5.1,7.2-11.7,10.1-19.2l2.1-5.7L364.7,236.8z M177.5,235.6l-1.6,5.8c-2.6,9.2-6,18-10.8,25.3l-3.4,5.1l-11.1-6.4l3.4-5.1
	c3.9-5.9,6.9-13.4,9.3-22l1.6-5.8L177.5,235.6z M84.4,232.3l1.8,5.8c2.6,8.5,5.8,15.9,9.9,21.8l3.6,5.1l-10.9,6.6l-3.6-5.1
	c-5.1-7.3-8.8-15.9-11.6-25.1l-1.8-5.8L84.4,232.3z M298.2,265.6l5.8,2.7c2.7,1.3,5.9,2.1,9.9,2.2c3.8,0.1,7.2-0.3,10.2-1.2l6.2-1.8
	l3.9,11.5l-6.2,1.8c-4.5,1.3-9.3,1.9-14.5,1.7c-5.6-0.2-10.7-1.4-15.3-3.5l-5.8-2.7L298.2,265.6z M147,283.4l-6.2,1.8
	c-4.8,1.4-10,2.1-15.7,2c-5.6-0.1-10.8-0.9-15.6-2.4l-6.2-2l4.2-11.4l6.2,2c3.3,1.1,7.2,1.7,11.6,1.8c4.4,0.1,8.2-0.4,11.5-1.4
	l6.2-1.8L147,283.4z"/>
<path d="M224.4,101.3V87.8h2v13.5H224.4z M225.3,95.9V94h4.7c0.8,0,1.4-0.2,1.8-0.5c0.4-0.4,0.7-0.9,0.7-1.5c0-0.7-0.2-1.2-0.7-1.6
	c-0.4-0.4-1-0.6-1.8-0.6h-4.7v-2h5c0.6,0,1.1,0.1,1.6,0.3c0.5,0.2,0.9,0.5,1.3,0.9c0.4,0.4,0.7,0.8,0.9,1.3c0.2,0.5,0.3,1,0.3,1.6
	c0,0.6-0.1,1.1-0.3,1.6c-0.2,0.5-0.5,0.9-0.9,1.3c-0.4,0.4-0.8,0.6-1.3,0.9c-0.5,0.2-1,0.3-1.6,0.3H225.3z M236,94.2v-1.6h8.5v1.6
	H236z M236,97.5v-1.6h8.5v1.6H236z M249.1,101.3v-2.9h2.8v2.9H249.1z M251.5,97.3h-1.9v-2.6h1.9V97.3z M247.7,93h-2
	c0-0.8,0.1-1.5,0.3-2.1c0.2-0.7,0.5-1.2,0.9-1.7c0.4-0.5,0.9-0.9,1.5-1.1c0.6-0.3,1.3-0.4,2-0.4c0.7,0,1.4,0.1,2,0.3
	c0.6,0.2,1.1,0.5,1.5,0.9c0.4,0.4,0.8,0.8,1,1.4c0.2,0.5,0.4,1.1,0.4,1.7c0,0.9-0.1,1.6-0.4,2.1c-0.3,0.5-0.7,1-1.2,1.3
	c-0.5,0.3-1.1,0.5-1.8,0.6c-0.7,0.1-1.4,0.2-2.2,0.2v-1.5c0.6,0,1.2,0,1.6-0.1c0.5-0.1,0.8-0.2,1.1-0.4c0.3-0.2,0.5-0.5,0.6-0.8
	c0.1-0.3,0.2-0.8,0.2-1.3c0-0.4-0.1-0.7-0.2-1c-0.1-0.3-0.3-0.6-0.6-0.8c-0.3-0.2-0.6-0.4-0.9-0.5c-0.4-0.1-0.7-0.2-1.2-0.2
	c-0.4,0-0.9,0.1-1.2,0.3c-0.3,0.2-0.6,0.4-0.9,0.7c-0.2,0.3-0.4,0.7-0.5,1.1C247.7,92,247.7,92.5,247.7,93z M261.6,86.2h2l-5,17h-2
	L261.6,86.2z M271.5,95.2c0-0.7-0.2-1.2-0.5-1.5c-0.3-0.3-0.9-0.5-1.5-0.5c-0.3,0-0.6,0-0.8,0.1c-0.3,0.1-0.5,0.2-0.7,0.3
	c-0.2,0.1-0.4,0.3-0.5,0.5c-0.1,0.2-0.2,0.4-0.2,0.7h-2c0-0.4,0.1-0.9,0.3-1.3c0.2-0.4,0.5-0.8,0.8-1.2s0.8-0.6,1.3-0.9
	c0.5-0.2,1.1-0.3,1.8-0.3c0.7,0,1.3,0.1,1.8,0.3c0.5,0.2,0.9,0.5,1.2,0.9c0.3,0.4,0.6,0.8,0.7,1.4c0.2,0.5,0.2,1.1,0.2,1.7v4h0.6
	v1.8h-0.8c-0.4,0-0.7,0-1-0.1c-0.2-0.1-0.4-0.2-0.6-0.4s-0.2-0.4-0.3-0.8c0-0.3-0.1-0.7-0.1-1.1V95.2z M272.6,95.1v1.6
	c0,0-0.1,0-0.3,0c-0.2,0-0.5,0-0.8,0.1c-0.3,0-0.7,0-1,0.1c-0.4,0-0.7,0.1-1,0.1c-0.4,0-0.8,0.1-1.1,0.1c-0.3,0.1-0.6,0.1-0.9,0.3
	c-0.2,0.1-0.4,0.3-0.6,0.5c-0.1,0.2-0.2,0.4-0.2,0.7c0,0.5,0.2,0.8,0.5,1c0.3,0.2,0.8,0.3,1.3,0.3c0.6,0,1-0.1,1.4-0.3
	c0.4-0.2,0.7-0.4,0.9-0.7c0.2-0.3,0.4-0.6,0.5-0.9c0.1-0.3,0.1-0.7,0.1-1c0.1,0,0.3,0,0.4,0s0.2,0,0.3,0s0.1,0,0.1,0
	c0,0.6-0.1,1.2-0.3,1.7c-0.2,0.6-0.4,1-0.8,1.5s-0.8,0.8-1.4,1c-0.6,0.3-1.2,0.4-2,0.4c-1,0-1.7-0.3-2.2-0.8
	c-0.5-0.5-0.7-1.2-0.7-2.1c0-0.6,0.1-1.1,0.4-1.5c0.3-0.4,0.6-0.7,1-1c0.4-0.3,0.9-0.4,1.5-0.6c0.6-0.1,1.2-0.2,1.8-0.2
	c0.3,0,0.7-0.1,1-0.1c0.4,0,0.7,0,1-0.1C271.9,95.2,272.3,95.1,272.6,95.1z M275.7,86.8h2v7.4l-0.2,2l0.2,2.1v2.9h-2V86.8z
	 M277.2,96.3c0-0.7,0-1.3,0.1-1.9c0.1-0.6,0.3-1.2,0.5-1.6c0.3-0.5,0.6-0.9,1.1-1.2c0.5-0.3,1.1-0.4,1.9-0.4c0.6,0,1.1,0.1,1.6,0.4
	c0.5,0.2,0.9,0.6,1.3,1c0.4,0.4,0.7,1,0.9,1.6c0.2,0.6,0.3,1.4,0.3,2.2c0,0.8-0.1,1.5-0.3,2.1c-0.2,0.6-0.5,1.2-0.9,1.6
	c-0.4,0.4-0.8,0.8-1.3,1c-0.5,0.2-1,0.4-1.6,0.4c-0.8,0-1.4-0.1-1.9-0.4c-0.5-0.3-0.8-0.7-1.1-1.2c-0.3-0.5-0.4-1-0.5-1.6
	C277.3,97.6,277.2,97,277.2,96.3z M277.6,96.3c0,1.1,0.2,2,0.7,2.6s1.1,0.9,2,0.9c0.9,0,1.6-0.3,2-0.9c0.5-0.6,0.7-1.5,0.7-2.6
	c0-1.2-0.2-2-0.7-2.6c-0.4-0.6-1.1-0.9-2-0.9c-0.9,0-1.6,0.3-2,0.9S277.6,95.2,277.6,96.3z"/>
<path d="M33.7,254.6v-1.9h10.1v1.9H33.7z M37.7,253.7v-12.5h2v12.5H37.7z M35,247h-1.1v-2h1.3c0.6,0,1,0,1.3-0.1
	c0.3-0.1,0.6-0.3,0.8-0.5c0.2-0.3,0.3-0.6,0.3-1c0.1-0.4,0.1-1,0.1-1.7l0.2,1.2c0,0.7-0.1,1.3-0.2,1.8s-0.3,0.9-0.5,1.3
	c-0.2,0.3-0.5,0.6-0.9,0.8C36,246.9,35.5,247,35,247z"/>
<path d="M23.4,54.1c0-0.7-0.2-1.2-0.5-1.5c-0.3-0.3-0.9-0.5-1.5-0.5c-0.3,0-0.6,0-0.8,0.1c-0.3,0.1-0.5,0.2-0.7,0.3
	c-0.2,0.1-0.4,0.3-0.5,0.5c-0.1,0.2-0.2,0.4-0.2,0.7h-2c0-0.4,0.1-0.9,0.3-1.3s0.5-0.8,0.8-1.2c0.4-0.4,0.8-0.6,1.3-0.9
	c0.5-0.2,1.1-0.3,1.8-0.3c0.7,0,1.3,0.1,1.8,0.3c0.5,0.2,0.9,0.5,1.2,0.9c0.3,0.4,0.6,0.8,0.7,1.4c0.2,0.5,0.2,1.1,0.2,1.7v4H26v1.8
	h-0.8c-0.4,0-0.7,0-1-0.1s-0.4-0.2-0.6-0.4c-0.1-0.2-0.2-0.4-0.3-0.8c0-0.3-0.1-0.7-0.1-1.1V54.1z M24.6,54.1v1.6c0,0-0.1,0-0.3,0
	c-0.2,0-0.5,0-0.8,0.1c-0.3,0-0.7,0-1,0.1c-0.4,0-0.7,0.1-1,0.1c-0.4,0-0.8,0.1-1.1,0.1c-0.3,0.1-0.6,0.1-0.9,0.3
	c-0.2,0.1-0.4,0.3-0.6,0.5c-0.1,0.2-0.2,0.4-0.2,0.7c0,0.5,0.2,0.8,0.5,1c0.3,0.2,0.8,0.3,1.3,0.3s1-0.1,1.4-0.3
	c0.4-0.2,0.7-0.4,0.9-0.7c0.2-0.3,0.4-0.6,0.5-0.9c0.1-0.3,0.1-0.7,0.1-1c0.1,0,0.3,0,0.4,0c0.1,0,0.2,0,0.3,0s0.1,0,0.1,0
	c0,0.6-0.1,1.2-0.3,1.7c-0.2,0.6-0.4,1-0.8,1.5c-0.4,0.4-0.8,0.8-1.4,1c-0.6,0.3-1.2,0.4-2,0.4c-1,0-1.7-0.3-2.2-0.8
	c-0.5-0.5-0.7-1.2-0.7-2.1c0-0.6,0.1-1.1,0.4-1.5c0.3-0.4,0.6-0.7,1-1c0.4-0.3,0.9-0.4,1.5-0.6c0.6-0.1,1.2-0.2,1.8-0.2
	c0.3,0,0.7-0.1,1-0.1c0.4,0,0.7,0,1-0.1C23.9,54.1,24.2,54.1,24.6,54.1z M32.7,45.2h2l-5,17h-2L32.7,45.2z M38.8,47.4h2v10.3
	c0,0.1,0,0.2,0,0.3c0,0.1,0,0.1,0.1,0.2c0,0,0.1,0,0.2,0.1c0.1,0,0.2,0,0.3,0h3.9v2h-3.5c-1,0-1.7-0.3-2.2-0.8
	c-0.5-0.5-0.7-1.3-0.7-2.3V47.4z M45.2,50.3v1.9h-9.3v-1.9H45.2z"/>
<g>
	<path class="st4" d="M426.5,43.3c-0.1-1.9,1.4-3.5,3.2-3.5l60.2-1.5c1.9,0,3.5,1.5,3.5,3.4c0,4.2,0,11.9,0.7,22.9
		c0.7,11.2,3.3,21.1,5.1,26.6c0.7,2.2-0.9,4.5-3.2,4.6l-65.9,2.1c-2,0.1-3.6-1.7-3.4-3.7c0.4-5.2,1.1-15,0.8-25.9
		C427.2,57.5,426.7,48.1,426.5,43.3z"/>
	<path class="st5" d="M427.5,43.2c-0.1-1.3,0.9-2.3,2.2-2.3l60.2-1.5c1.3,0,2.3,1,2.3,2.3c0,4.2,0,12,0.7,22.9
		c0.7,11.4,3.4,21.4,5.1,26.9c0.5,1.5-0.6,3.1-2.1,3.2L430,96.8c-1.3,0-2.4-1.1-2.3-2.5c0.4-5.2,1.1-15.1,0.8-26
		C428.3,57.4,427.8,48,427.5,43.2z"/>
</g>
<path class="st6" d="M453.8,45.8l-1.6-13.5c5.1,0.6,15.3,2,15.4,2.9c0.1,0.9,0.6,7.7,1,11.7L453.8,45.8z"/>
<path class="st7" d="M432.8,50.5l19.7,0.2 M438.1,53.3l12,0.6 M464.2,77.7h18.7 M480.2,74.8l8.6,0.1 M452.1,87.6l31.7-0.4"/>
<path class="st7" d="M436.2,73.9V56.3l35.2,17.6H436.2z"/>
<circle class="st8" cx="441.5" cy="89.6" r="6"/>
</svg>
