<?xml version="1.0" encoding="utf-8"?>
<!-- Generator: Adobe Illustrator 28.0.0, SVG Export Plug-In . SVG Version: 6.00 Build 0)  -->
<svg version="1.1" id="Layer_1" xmlns="http://www.w3.org/2000/svg" xmlns:xlink="http://www.w3.org/1999/xlink" x="0px" y="0px"
	 viewBox="0 0 276.9 190.4" style="enable-background:new 0 0 276.9 190.4;" xml:space="preserve">
<style type="text/css">
	.st0{opacity:0.17;}
	.st1{fill:none;stroke:#000000;stroke-width:2;}
	.st2{fill:#B3FC1C;}
	.st3{fill:#FFD735;stroke:#000000;stroke-width:2;}
</style>
<g>
	<g class="st0">
		<path d="M42.9,65.1c0.3-1.3,1.4-2.2,2.8-2.2l189.4-4.4c1.8,0,3.2,1.5,3.1,3.3c-0.4,6-0.9,19.9,0.2,40.6c1.1,21,8.2,39.4,11.9,47.5
			c0.9,2.1-0.6,4.5-2.8,4.5H45.8c-1.4,0-2.6-0.9-2.9-2.3c-1.3-6-4.5-23.4-4.5-44.7C38.5,86.3,41.6,70.6,42.9,65.1z"/>
		<path class="st1" d="M45.7,63.9l189.4-4.4c1.2,0,2.2,1,2.1,2.2c-0.4,6-0.9,19.9,0.2,40.7c1.1,21.2,8.3,39.7,11.9,47.9
			c0.6,1.4-0.4,3.1-1.9,3.1H45.8c-0.9,0-1.7-0.6-1.9-1.5c-1.3-6-4.5-23.3-4.5-44.5c0-21,3.2-36.7,4.4-42.1
			C44.1,64.5,44.8,63.9,45.7,63.9z"/>
	</g>
	<g>
		<g>
			<path class="st2" d="M46.9,57.1c0.3-1.3,1.4-2.2,2.8-2.2l189.4-4.4c1.8,0,3.2,1.5,3.1,3.3c-0.4,6-0.9,19.9,0.2,40.6
				c1.1,21,8.2,39.4,11.9,47.5c0.9,2.1-0.6,4.5-2.8,4.5H49.8c-1.4,0-2.6-0.9-2.9-2.3c-1.3-6-4.5-23.4-4.5-44.7
				C42.5,78.3,45.6,62.6,46.9,57.1z"/>
			<path class="st1" d="M49.7,55.9l189.4-4.4c1.2,0,2.2,1,2.1,2.2c-0.4,6-0.9,19.9,0.2,40.7c1.1,21.2,8.3,39.7,11.9,47.9
				c0.6,1.4-0.4,3.1-1.9,3.1H49.8c-0.9,0-1.7-0.6-1.9-1.5c-1.3-6-4.5-23.3-4.5-44.5c0-21,3.2-36.7,4.4-42.1
				C48.1,56.5,48.8,55.9,49.7,55.9z"/>
		</g>
	</g>
</g>
<path class="st3" d="M129.5,63.9l-6-33c6.2-1.8,18.6-4.9,19-2.5c0.4,2.4,3.8,24.7,5.5,35.5H129.5z"/>
</svg>
