<svg width="59" height="59" viewBox="0 0 59 59" fill="none" xmlns="http://www.w3.org/2000/svg">
<g id="Frame 1000002724" filter="url(#filter0_i_2001_713)">
<rect width="59" height="59" rx="29.5" fill="#E40B41"/>
<rect x="1" y="1" width="57" height="57" rx="28.5" stroke="black" stroke-width="2"/>
<g id="Group 25">
<g id="Union">
<mask id="path-3-outside-1_2001_713" maskUnits="userSpaceOnUse" x="12.2266" y="12.2256" width="35" height="35" fill="black">
<rect fill="white" x="12.2266" y="12.2256" width="35" height="35"/>
<path fill-rule="evenodd" clip-rule="evenodd" d="M29.3153 33.2827L39.4315 43.3988L43.3998 39.4305L33.2836 29.3143L43.404 19.194L39.4357 15.2256L29.3153 25.346L19.1949 15.2256L15.2266 19.1939L25.347 29.3143L15.2308 39.4305L19.1991 43.3989L29.3153 33.2827Z"/>
</mask>
<path fill-rule="evenodd" clip-rule="evenodd" d="M29.3153 33.2827L39.4315 43.3988L43.3998 39.4305L33.2836 29.3143L43.404 19.194L39.4357 15.2256L29.3153 25.346L19.1949 15.2256L15.2266 19.1939L25.347 29.3143L15.2308 39.4305L19.1991 43.3989L29.3153 33.2827Z" fill="white"/>
<path d="M39.4315 43.3988L38.0173 44.813L39.4315 46.2273L40.8457 44.813L39.4315 43.3988ZM29.3153 33.2827L30.7295 31.8685L29.3153 30.4542L27.9011 31.8685L29.3153 33.2827ZM43.3998 39.4305L44.814 40.8447L46.2282 39.4305L44.814 38.0163L43.3998 39.4305ZM33.2836 29.3143L31.8694 27.9001L30.4552 29.3143L31.8694 30.7285L33.2836 29.3143ZM43.404 19.194L44.8182 20.6082L46.2325 19.194L44.8182 17.7797L43.404 19.194ZM39.4357 15.2256L40.8499 13.8114L39.4357 12.3972L38.0215 13.8114L39.4357 15.2256ZM29.3153 25.346L27.9011 26.7602L29.3153 28.1744L30.7295 26.7602L29.3153 25.346ZM19.1949 15.2256L20.6091 13.8114L19.1949 12.3972L17.7807 13.8114L19.1949 15.2256ZM15.2266 19.1939L13.8123 17.7797L12.3981 19.1939L13.8123 20.6081L15.2266 19.1939ZM25.347 29.3143L26.7612 30.7285L28.1754 29.3143L26.7612 27.9001L25.347 29.3143ZM15.2308 39.4305L13.8166 38.0163L12.4024 39.4305L13.8166 40.8447L15.2308 39.4305ZM19.1991 43.3989L17.7849 44.8131L19.1991 46.2273L20.6133 44.8131L19.1991 43.3989ZM40.8457 41.9846L30.7295 31.8685L27.9011 34.6969L38.0173 44.813L40.8457 41.9846ZM41.9856 38.0163L38.0173 41.9846L40.8457 44.813L44.814 40.8447L41.9856 38.0163ZM31.8694 30.7285L41.9856 40.8447L44.814 38.0163L34.6979 27.9001L31.8694 30.7285ZM41.9898 17.7797L31.8694 27.9001L34.6979 30.7285L44.8182 20.6082L41.9898 17.7797ZM38.0215 16.6398L41.9898 20.6082L44.8182 17.7797L40.8499 13.8114L38.0215 16.6398ZM30.7295 26.7602L40.8499 16.6398L38.0215 13.8114L27.9011 23.9318L30.7295 26.7602ZM17.7807 16.6398L27.9011 26.7602L30.7295 23.9318L20.6091 13.8114L17.7807 16.6398ZM16.6408 20.6081L20.6091 16.6398L17.7807 13.8114L13.8123 17.7797L16.6408 20.6081ZM26.7612 27.9001L16.6408 17.7797L13.8123 20.6081L23.9328 30.7285L26.7612 27.9001ZM16.645 40.8447L26.7612 30.7285L23.9328 27.9001L13.8166 38.0163L16.645 40.8447ZM20.6133 41.9846L16.645 38.0163L13.8166 40.8447L17.7849 44.8131L20.6133 41.9846ZM27.9011 31.8685L17.7849 41.9846L20.6133 44.8131L30.7295 34.6969L27.9011 31.8685Z" fill="black" mask="url(#path-3-outside-1_2001_713)"/>
</g>
</g>
</g>
<defs>
<filter id="filter0_i_2001_713" x="0" y="0" width="59" height="59" filterUnits="userSpaceOnUse" color-interpolation-filters="sRGB">
<feFlood flood-opacity="0" result="BackgroundImageFix"/>
<feBlend mode="normal" in="SourceGraphic" in2="BackgroundImageFix" result="shape"/>
<feColorMatrix in="SourceAlpha" type="matrix" values="0 0 0 0 0 0 0 0 0 0 0 0 0 0 0 0 0 0 127 0" result="hardAlpha"/>
<feOffset dx="3" dy="-5"/>
<feComposite in2="hardAlpha" operator="arithmetic" k2="-1" k3="1"/>
<feColorMatrix type="matrix" values="0 0 0 0 0 0 0 0 0 0 0 0 0 0 0 0 0 0 0.25 0"/>
<feBlend mode="normal" in2="shape" result="effect1_innerShadow_2001_713"/>
</filter>
</defs>
</svg>
