<svg width="24" height="28" viewBox="0 0 24 28" fill="none" xmlns="http://www.w3.org/2000/svg">
<g id="Clip path group">
<mask id="mask0_643_18134" style="mask-type:luminance" maskUnits="userSpaceOnUse" x="0" y="0" width="24" height="28">
<g id="clip0_125_65">
<path id="Vector" d="M23.8243 0H0.173828V28H23.8243V0Z" fill="white"/>
</g>
</mask>
<g mask="url(#mask0_643_18134)">
<g id="Group">
<path id="Vector_2" fill-rule="evenodd" clip-rule="evenodd" d="M14.422 9.98746C15.2833 9.5599 16.379 8.93032 17.4763 8.06771C17.7076 8.54616 17.7331 8.96357 17.6137 9.30055C17.5292 9.53806 17.37 9.7447 17.1609 9.90906C16.9344 10.0866 16.6512 10.2161 16.3384 10.286C15.7448 10.4191 15.0516 10.3416 14.422 9.98746ZM14.5714 14.369L15.7114 15.0248C13.3836 16.3241 12.7507 18.7366 11.9988 21.0862C11.2472 18.7366 10.6142 16.3239 8.28648 15.0248L9.4265 14.369C9.65274 14.2839 9.79827 14.0635 9.78679 13.8228C9.68221 11.6222 10.279 10.6489 11.084 10.0381C11.3726 9.81925 11.6878 9.70942 11.9988 9.70942C12.3098 9.70942 12.625 9.81925 12.9136 10.0381C13.7183 10.6492 14.3151 11.6222 14.2108 13.8228C14.1993 14.0635 14.3453 14.2839 14.5714 14.369ZM11.9991 0C13.3169 0.035306 14.6381 0.289976 15.7847 0.785561C16.5788 1.12927 17.3194 1.58306 17.9904 2.12589C18.2933 2.37096 18.5428 2.60771 18.8176 2.8803C19.5588 2.90573 20.642 2.08591 21.1449 1.31879C20.2793 4.14404 16.3303 7.4802 13.5963 8.75693C13.5953 8.75644 13.5945 8.75588 13.5937 8.75539C13.1031 8.38229 12.5512 8.19567 11.9993 8.19567C11.4474 8.19567 10.8955 8.38229 10.4049 8.75539C10.4041 8.75588 10.4034 8.75665 10.4023 8.75693C7.66782 7.4802 3.71904 4.14378 2.85352 1.31879C3.3564 2.08591 4.43934 2.90599 5.1805 2.8803C5.45528 2.60797 5.70477 2.37096 6.0077 2.12589C6.67848 1.58306 7.41939 1.12927 8.21347 0.785561C9.36028 0.289976 10.6813 0.035306 11.9991 0ZM9.57616 9.98746C8.71502 9.5599 7.6191 8.93032 6.5218 8.06771C6.29056 8.54616 6.26501 8.96357 6.38415 9.30055C6.46861 9.53806 6.6279 9.7447 6.83698 9.90906C7.06378 10.0866 7.34687 10.2161 7.65977 10.286C8.25337 10.4191 8.94679 10.3416 9.57616 9.98746Z" fill="white"/>
<path id="Vector_3" fill-rule="evenodd" clip-rule="evenodd" d="M18.6781 7.01082C19.2821 6.40386 19.8145 5.73201 20.2423 5.13232L20.4598 5.53964C21.1595 6.93371 21.5231 8.32234 21.5231 9.88488L21.5216 12.3646L21.5346 13.6499C21.5852 16.8056 22.2711 19.9982 23.8243 22.9201L20.5745 20.3105L18.2751 24.0262L15.8595 21.7617L11.9991 28L8.13864 21.762L5.72304 24.0265L3.42368 20.3108L0.173828 22.9204C1.72707 19.9985 2.4127 16.8056 2.46354 13.6502L2.47657 12.3648L2.47501 9.88516C2.47501 8.32234 2.83842 6.93397 3.53839 5.5399L3.75555 5.13258C4.18362 5.73201 4.7157 6.40386 5.31974 7.0111L5.13099 7.40128C4.76445 8.15903 4.64323 9.00638 4.92869 9.81243C5.11274 10.3314 5.44852 10.7766 5.88154 11.1165C6.30205 11.4464 6.79972 11.6689 7.32062 11.7857C7.66005 11.8618 8.00571 11.8932 8.34934 11.8825C8.26926 12.335 8.23405 12.8041 8.23202 13.2823L5.16644 15.0455L7.53202 16.3658C7.72102 16.4715 7.9012 16.5922 8.07011 16.7275C10.0204 18.4712 11.193 23.6298 11.9988 26.1495C12.8046 23.6298 13.9773 18.4712 15.9275 16.7275C16.0964 16.5925 16.2766 16.4715 16.4656 16.3658L18.8312 15.0455L15.7656 13.2823C15.7633 12.8041 15.7283 12.335 15.6483 11.8825C15.9919 11.8932 16.3376 11.8618 16.677 11.7857C17.1979 11.6689 17.6956 11.4464 18.1161 11.1165C18.5491 10.7766 18.8849 10.3314 19.0689 9.81243C19.3544 9.00666 19.2331 8.15931 18.8666 7.40128L18.6781 7.01082Z" fill="white"/>
</g>
</g>
</g>
</svg>
