<svg width="28" height="28" viewBox="0 0 28 28" fill="none" xmlns="http://www.w3.org/2000/svg">
<g id="mingcute:telegram-fill">
<g id="Group">
<path id="Vector" fill-rule="evenodd" clip-rule="evenodd" d="M24.1174 4.15051C24.4371 4.01724 24.787 3.97128 25.1307 4.0174C25.4744 4.06353 25.7993 4.20005 26.0716 4.41277C26.344 4.62549 26.5538 4.90663 26.6792 5.22691C26.8046 5.5472 26.8411 5.89493 26.7848 6.23391L23.8509 23.8608C23.5663 25.5611 21.6828 26.5362 20.1085 25.6893C18.7916 24.9807 16.8357 23.889 15.0763 22.75C14.1967 22.1798 11.5021 20.3539 11.8333 19.0547C12.1179 17.9438 16.6455 13.7693 19.2327 11.2874C20.2482 10.3123 19.7851 9.74982 18.5859 10.6467C15.608 12.8736 10.8268 16.2601 9.24604 17.2134C7.85153 18.054 7.12452 18.1975 6.25521 18.054C4.66924 17.7926 3.19841 17.3877 1.99794 16.8944C0.375749 16.2281 0.454659 14.0191 1.99664 13.3759L24.1174 4.15051Z" fill="white"/>
</g>
</g>
</svg>
