<svg width="102" height="27" viewBox="0 0 102 27" fill="none" xmlns="http://www.w3.org/2000/svg">
<path d="M9.75206 8.30829L16.7582 20.0342H2.74596L9.75206 8.30829Z" fill="white"/>
<path d="M21.3869 14.3063L15.6403 4.83013L27.1335 4.83013L21.3869 14.3063Z" fill="white"/>
<path d="M90.6357 13.133C90.6357 12.0485 90.8801 11.0938 91.3689 10.269C91.873 9.44422 92.5527 8.8027 93.408 8.34447C94.2634 7.87097 95.2333 7.63422 96.3178 7.63422C97.4023 7.63422 98.3645 7.87097 99.2046 8.34447C100.06 8.8027 100.74 9.44422 101.244 10.269C101.748 11.0938 102 12.0485 102 13.133C102 14.2022 101.748 15.1568 101.244 15.9969C100.74 16.8217 100.06 17.4709 99.2046 17.9444C98.3645 18.4026 97.4023 18.6317 96.3178 18.6317C95.2333 18.6317 94.2634 18.4026 93.408 17.9444C92.5527 17.4709 91.873 16.8217 91.3689 15.9969C90.8801 15.1568 90.6357 14.2022 90.6357 13.133ZM93.1789 13.133C93.1789 13.7898 93.3164 14.3702 93.5913 14.8742C93.8663 15.363 94.2405 15.7525 94.714 16.0427C95.1875 16.3177 95.7221 16.4551 96.3178 16.4551C96.8982 16.4551 97.4252 16.3177 97.8987 16.0427C98.3875 15.7525 98.7693 15.363 99.0442 14.8742C99.3192 14.3702 99.4567 13.7898 99.4567 13.133C99.4567 12.4762 99.3192 11.8957 99.0442 11.3917C98.7693 10.8876 98.3875 10.4981 97.8987 10.2232C97.4252 9.94827 96.8982 9.8108 96.3178 9.8108C95.7221 9.8108 95.1875 9.94827 94.714 10.2232C94.2405 10.4981 93.8663 10.8876 93.5913 11.3917C93.3164 11.8957 93.1789 12.4762 93.1789 13.133Z" fill="white"/>
<path d="M79.2939 7.86414H81.9975L84.7469 14.6688L87.4963 7.86414H90.2227L84.7469 19.3657L79.2939 7.86414Z" fill="white"/>
<path d="M67.5215 13.133C67.5215 12.0485 67.7659 11.0938 68.2547 10.269C68.7587 9.44422 69.4384 8.8027 70.2938 8.34447C71.1491 7.87097 72.1191 7.63422 73.2035 7.63422C74.288 7.63422 75.2503 7.87097 76.0904 8.34447C76.9457 8.8027 77.6254 9.44422 78.1295 10.269C78.6335 11.0938 78.8856 12.0485 78.8856 13.133C78.8856 14.2022 78.6335 15.1568 78.1295 15.9969C77.6254 16.8217 76.9457 17.4709 76.0904 17.9444C75.2503 18.4026 74.288 18.6317 73.2035 18.6317C72.1191 18.6317 71.1491 18.4026 70.2938 17.9444C69.4384 17.4709 68.7587 16.8217 68.2547 15.9969C67.7659 15.1568 67.5215 14.2022 67.5215 13.133ZM70.0647 13.133C70.0647 13.7898 70.2021 14.3702 70.4771 14.8742C70.752 15.363 71.1262 15.7525 71.5997 16.0427C72.0732 16.3177 72.6078 16.4551 73.2035 16.4551C73.7839 16.4551 74.3109 16.3177 74.7844 16.0427C75.2732 15.7525 75.6551 15.363 75.93 14.8742C76.2049 14.3702 76.3424 13.7898 76.3424 13.133C76.3424 12.4762 76.2049 11.8957 75.93 11.3917C75.6551 10.8876 75.2732 10.4981 74.7844 10.2232C74.3109 9.94827 73.7839 9.8108 73.2035 9.8108C72.6078 9.8108 72.0732 9.94827 71.5997 10.2232C71.1262 10.4981 70.752 10.8876 70.4771 11.3917C70.2021 11.8957 70.0647 12.4762 70.0647 13.133Z" fill="white"/>
<path d="M62.6207 11.9874C62.6207 11.2084 62.4603 10.6203 62.1395 10.2232C61.8188 9.82608 61.3223 9.62751 60.6503 9.62751C60.192 9.62751 59.7873 9.7268 59.436 9.92536C59.0847 10.1087 58.8097 10.3836 58.6112 10.7502C58.4126 11.1015 58.3133 11.5139 58.3133 11.9874V18.4026H55.8389V7.86333H58.3133V9.49004C58.6493 8.8638 59.077 8.39793 59.5963 8.09245C60.1309 7.78696 60.7648 7.63422 61.498 7.63422C62.6894 7.63422 63.5982 8.0008 64.2245 8.73397C64.8507 9.45186 65.1638 10.4447 65.1638 11.7125V18.4026H62.6207V11.9874Z" fill="white"/>
<path d="M46.6016 14.943C46.9377 15.3096 47.2737 15.6303 47.6097 15.9053C47.961 16.1649 48.3123 16.3635 48.6637 16.501C49.015 16.6231 49.3663 16.6842 49.7176 16.6842C50.1605 16.6842 50.5042 16.585 50.7486 16.3864C51.0083 16.1878 51.1381 15.9129 51.1381 15.5616C51.1381 15.2561 51.0388 14.9964 50.8402 14.7826C50.6417 14.5535 50.3667 14.3625 50.0154 14.2098C49.6641 14.0418 49.2517 13.8738 48.7782 13.7058C48.3047 13.5225 47.8312 13.3086 47.3577 13.0642C46.8995 12.8046 46.5176 12.4685 46.2121 12.0561C45.9219 11.6437 45.7768 11.1244 45.7768 10.4981C45.7768 9.85663 45.9372 9.32203 46.258 8.89435C46.594 8.46667 47.0369 8.15354 47.5868 7.95498C48.152 7.74114 48.7553 7.63422 49.3968 7.63422C49.9772 7.63422 50.5195 7.71823 51.0235 7.88624C51.5429 8.05426 52.0087 8.27574 52.4211 8.55067C52.8335 8.82561 53.1849 9.13874 53.4751 9.49004L52.1004 10.9564C51.7491 10.544 51.329 10.2079 50.8402 9.94827C50.3515 9.68861 49.8474 9.55878 49.3281 9.55878C48.9768 9.55878 48.6866 9.63515 48.4575 9.78789C48.2283 9.94064 48.1138 10.1621 48.1138 10.4523C48.1138 10.6967 48.2131 10.9182 48.4116 11.1168C48.6255 11.3001 48.9004 11.4681 49.2364 11.6208C49.5878 11.7736 49.9772 11.9339 50.4049 12.102C50.9854 12.3311 51.52 12.5831 52.0087 12.858C52.4975 13.133 52.887 13.469 53.1772 13.8661C53.4827 14.2633 53.6354 14.7826 53.6354 15.4241C53.6354 16.4169 53.2918 17.2188 52.6044 17.8298C51.9324 18.4255 51.0159 18.7234 49.8551 18.7234C49.1372 18.7234 48.4727 18.6164 47.8618 18.4026C47.2661 18.1735 46.7391 17.8833 46.2809 17.532C45.8379 17.1654 45.4637 16.7835 45.1582 16.3864L46.6016 14.943Z" fill="white"/>
<path d="M32.4121 13.133C32.4121 12.0485 32.6565 11.0938 33.1453 10.269C33.6493 9.44422 34.329 8.8027 35.1844 8.34447C36.0398 7.87097 37.0097 7.63422 38.0942 7.63422C39.1786 7.63422 40.1409 7.87097 40.981 8.34447C41.8364 8.8027 42.5161 9.44422 43.0201 10.269C43.5242 11.0938 43.7762 12.0485 43.7762 13.133C43.7762 14.2022 43.5242 15.1568 43.0201 15.9969C42.5161 16.8217 41.8364 17.4709 40.981 17.9444C40.1409 18.4026 39.1786 18.6317 38.0942 18.6317C37.0097 18.6317 36.0398 18.4026 35.1844 17.9444C34.329 17.4709 33.6493 16.8217 33.1453 15.9969C32.6565 15.1568 32.4121 14.2022 32.4121 13.133ZM34.9553 13.133C34.9553 13.7898 35.0928 14.3702 35.3677 14.8742C35.6426 15.363 36.0168 15.7525 36.4904 16.0427C36.9639 16.3177 37.4985 16.4551 38.0942 16.4551C38.6746 16.4551 39.2015 16.3177 39.675 16.0427C40.1638 15.7525 40.5457 15.363 40.8206 14.8742C41.0956 14.3702 41.233 13.7898 41.233 13.133C41.233 12.4762 41.0956 11.8957 40.8206 11.3917C40.5457 10.8876 40.1638 10.4981 39.675 10.2232C39.2015 9.94827 38.6746 9.8108 38.0942 9.8108C37.4985 9.8108 36.9639 9.94827 36.4904 10.2232C36.0168 10.4981 35.6426 10.8876 35.3677 11.3917C35.0928 11.8957 34.9553 12.4762 34.9553 13.133Z" fill="white"/>
</svg>
